<?xml version="1.0" encoding="utf-8" standalone="no"?>
<!DOCTYPE svg PUBLIC "-//W3C//DTD SVG 1.1//EN"
  "http://www.w3.org/Graphics/SVG/1.1/DTD/svg11.dtd">
<!-- Created with matplotlib (https://matplotlib.org/) -->
<svg height="576pt" version="1.1" viewBox="0 0 576 576" width="576pt" xmlns="http://www.w3.org/2000/svg" xmlns:xlink="http://www.w3.org/1999/xlink">
 <defs>
  <style type="text/css">
*{stroke-linecap:butt;stroke-linejoin:round;white-space:pre;}
  </style>
 </defs>
 <g id="figure_1">
  <g id="patch_1">
   <path d="M 0 576 
L 576 576 
L 576 0 
L 0 0 
z
" style="fill:#ffffff;"/>
  </g>
  <g id="axes_1">
   <g id="patch_2">
    <path d="M 77.76 504 
L 512.64 504 
L 512.64 69.12 
L 77.76 69.12 
z
" style="fill:none;"/>
   </g>
   <g id="matplotlib.axis_1">
    <g id="xtick_1">
     <g id="line2d_1">
      <defs>
       <path d="M 0 0 
L 0 3.5 
" id="m0ba3dc0920" style="stroke:#000000;stroke-width:0.8;"/>
      </defs>
      <g>
       <use style="stroke:#000000;stroke-width:0.8;" x="77.76" xlink:href="#m0ba3dc0920" y="504"/>
      </g>
     </g>
     <g id="text_1">
      <!-- 20000 -->
      <defs>
       <path d="M 19.1875 8.296875 
L 53.609375 8.296875 
L 53.609375 0 
L 7.328125 0 
L 7.328125 8.296875 
Q 12.9375 14.109375 22.625 23.890625 
Q 32.328125 33.6875 34.8125 36.53125 
Q 39.546875 41.84375 41.421875 45.53125 
Q 43.3125 49.21875 43.3125 52.78125 
Q 43.3125 58.59375 39.234375 62.25 
Q 35.15625 65.921875 28.609375 65.921875 
Q 23.96875 65.921875 18.8125 64.3125 
Q 13.671875 62.703125 7.8125 59.421875 
L 7.8125 69.390625 
Q 13.765625 71.78125 18.9375 73 
Q 24.125 74.21875 28.421875 74.21875 
Q 39.75 74.21875 46.484375 68.546875 
Q 53.21875 62.890625 53.21875 53.421875 
Q 53.21875 48.921875 51.53125 44.890625 
Q 49.859375 40.875 45.40625 35.40625 
Q 44.1875 33.984375 37.640625 27.21875 
Q 31.109375 20.453125 19.1875 8.296875 
z
" id="DejaVuSans-50"/>
       <path d="M 31.78125 66.40625 
Q 24.171875 66.40625 20.328125 58.90625 
Q 16.5 51.421875 16.5 36.375 
Q 16.5 21.390625 20.328125 13.890625 
Q 24.171875 6.390625 31.78125 6.390625 
Q 39.453125 6.390625 43.28125 13.890625 
Q 47.125 21.390625 47.125 36.375 
Q 47.125 51.421875 43.28125 58.90625 
Q 39.453125 66.40625 31.78125 66.40625 
z
M 31.78125 74.21875 
Q 44.046875 74.21875 50.515625 64.515625 
Q 56.984375 54.828125 56.984375 36.375 
Q 56.984375 17.96875 50.515625 8.265625 
Q 44.046875 -1.421875 31.78125 -1.421875 
Q 19.53125 -1.421875 13.0625 8.265625 
Q 6.59375 17.96875 6.59375 36.375 
Q 6.59375 54.828125 13.0625 64.515625 
Q 19.53125 74.21875 31.78125 74.21875 
z
" id="DejaVuSans-48"/>
      </defs>
      <g transform="translate(61.85375 518.598438)scale(0.1 -0.1)">
       <use xlink:href="#DejaVuSans-50"/>
       <use x="63.623047" xlink:href="#DejaVuSans-48"/>
       <use x="127.246094" xlink:href="#DejaVuSans-48"/>
       <use x="190.869141" xlink:href="#DejaVuSans-48"/>
       <use x="254.492188" xlink:href="#DejaVuSans-48"/>
      </g>
     </g>
    </g>
    <g id="xtick_2">
     <g id="line2d_2">
      <g>
       <use style="stroke:#000000;stroke-width:0.8;" x="135.744" xlink:href="#m0ba3dc0920" y="504"/>
      </g>
     </g>
     <g id="text_2">
      <!-- 22000 -->
      <g transform="translate(119.83775 518.598438)scale(0.1 -0.1)">
       <use xlink:href="#DejaVuSans-50"/>
       <use x="63.623047" xlink:href="#DejaVuSans-50"/>
       <use x="127.246094" xlink:href="#DejaVuSans-48"/>
       <use x="190.869141" xlink:href="#DejaVuSans-48"/>
       <use x="254.492188" xlink:href="#DejaVuSans-48"/>
      </g>
     </g>
    </g>
    <g id="xtick_3">
     <g id="line2d_3">
      <g>
       <use style="stroke:#000000;stroke-width:0.8;" x="193.728" xlink:href="#m0ba3dc0920" y="504"/>
      </g>
     </g>
     <g id="text_3">
      <!-- 24000 -->
      <defs>
       <path d="M 37.796875 64.3125 
L 12.890625 25.390625 
L 37.796875 25.390625 
z
M 35.203125 72.90625 
L 47.609375 72.90625 
L 47.609375 25.390625 
L 58.015625 25.390625 
L 58.015625 17.1875 
L 47.609375 17.1875 
L 47.609375 0 
L 37.796875 0 
L 37.796875 17.1875 
L 4.890625 17.1875 
L 4.890625 26.703125 
z
" id="DejaVuSans-52"/>
      </defs>
      <g transform="translate(177.82175 518.598438)scale(0.1 -0.1)">
       <use xlink:href="#DejaVuSans-50"/>
       <use x="63.623047" xlink:href="#DejaVuSans-52"/>
       <use x="127.246094" xlink:href="#DejaVuSans-48"/>
       <use x="190.869141" xlink:href="#DejaVuSans-48"/>
       <use x="254.492188" xlink:href="#DejaVuSans-48"/>
      </g>
     </g>
    </g>
    <g id="xtick_4">
     <g id="line2d_4">
      <g>
       <use style="stroke:#000000;stroke-width:0.8;" x="251.712" xlink:href="#m0ba3dc0920" y="504"/>
      </g>
     </g>
     <g id="text_4">
      <!-- 26000 -->
      <defs>
       <path d="M 33.015625 40.375 
Q 26.375 40.375 22.484375 35.828125 
Q 18.609375 31.296875 18.609375 23.390625 
Q 18.609375 15.53125 22.484375 10.953125 
Q 26.375 6.390625 33.015625 6.390625 
Q 39.65625 6.390625 43.53125 10.953125 
Q 47.40625 15.53125 47.40625 23.390625 
Q 47.40625 31.296875 43.53125 35.828125 
Q 39.65625 40.375 33.015625 40.375 
z
M 52.59375 71.296875 
L 52.59375 62.3125 
Q 48.875 64.0625 45.09375 64.984375 
Q 41.3125 65.921875 37.59375 65.921875 
Q 27.828125 65.921875 22.671875 59.328125 
Q 17.53125 52.734375 16.796875 39.40625 
Q 19.671875 43.65625 24.015625 45.921875 
Q 28.375 48.1875 33.59375 48.1875 
Q 44.578125 48.1875 50.953125 41.515625 
Q 57.328125 34.859375 57.328125 23.390625 
Q 57.328125 12.15625 50.6875 5.359375 
Q 44.046875 -1.421875 33.015625 -1.421875 
Q 20.359375 -1.421875 13.671875 8.265625 
Q 6.984375 17.96875 6.984375 36.375 
Q 6.984375 53.65625 15.1875 63.9375 
Q 23.390625 74.21875 37.203125 74.21875 
Q 40.921875 74.21875 44.703125 73.484375 
Q 48.484375 72.75 52.59375 71.296875 
z
" id="DejaVuSans-54"/>
      </defs>
      <g transform="translate(235.80575 518.598438)scale(0.1 -0.1)">
       <use xlink:href="#DejaVuSans-50"/>
       <use x="63.623047" xlink:href="#DejaVuSans-54"/>
       <use x="127.246094" xlink:href="#DejaVuSans-48"/>
       <use x="190.869141" xlink:href="#DejaVuSans-48"/>
       <use x="254.492188" xlink:href="#DejaVuSans-48"/>
      </g>
     </g>
    </g>
    <g id="xtick_5">
     <g id="line2d_5">
      <g>
       <use style="stroke:#000000;stroke-width:0.8;" x="309.696" xlink:href="#m0ba3dc0920" y="504"/>
      </g>
     </g>
     <g id="text_5">
      <!-- 28000 -->
      <defs>
       <path d="M 31.78125 34.625 
Q 24.75 34.625 20.71875 30.859375 
Q 16.703125 27.09375 16.703125 20.515625 
Q 16.703125 13.921875 20.71875 10.15625 
Q 24.75 6.390625 31.78125 6.390625 
Q 38.8125 6.390625 42.859375 10.171875 
Q 46.921875 13.96875 46.921875 20.515625 
Q 46.921875 27.09375 42.890625 30.859375 
Q 38.875 34.625 31.78125 34.625 
z
M 21.921875 38.8125 
Q 15.578125 40.375 12.03125 44.71875 
Q 8.5 49.078125 8.5 55.328125 
Q 8.5 64.0625 14.71875 69.140625 
Q 20.953125 74.21875 31.78125 74.21875 
Q 42.671875 74.21875 48.875 69.140625 
Q 55.078125 64.0625 55.078125 55.328125 
Q 55.078125 49.078125 51.53125 44.71875 
Q 48 40.375 41.703125 38.8125 
Q 48.828125 37.15625 52.796875 32.3125 
Q 56.78125 27.484375 56.78125 20.515625 
Q 56.78125 9.90625 50.3125 4.234375 
Q 43.84375 -1.421875 31.78125 -1.421875 
Q 19.734375 -1.421875 13.25 4.234375 
Q 6.78125 9.90625 6.78125 20.515625 
Q 6.78125 27.484375 10.78125 32.3125 
Q 14.796875 37.15625 21.921875 38.8125 
z
M 18.3125 54.390625 
Q 18.3125 48.734375 21.84375 45.5625 
Q 25.390625 42.390625 31.78125 42.390625 
Q 38.140625 42.390625 41.71875 45.5625 
Q 45.3125 48.734375 45.3125 54.390625 
Q 45.3125 60.0625 41.71875 63.234375 
Q 38.140625 66.40625 31.78125 66.40625 
Q 25.390625 66.40625 21.84375 63.234375 
Q 18.3125 60.0625 18.3125 54.390625 
z
" id="DejaVuSans-56"/>
      </defs>
      <g transform="translate(293.78975 518.598438)scale(0.1 -0.1)">
       <use xlink:href="#DejaVuSans-50"/>
       <use x="63.623047" xlink:href="#DejaVuSans-56"/>
       <use x="127.246094" xlink:href="#DejaVuSans-48"/>
       <use x="190.869141" xlink:href="#DejaVuSans-48"/>
       <use x="254.492188" xlink:href="#DejaVuSans-48"/>
      </g>
     </g>
    </g>
    <g id="xtick_6">
     <g id="line2d_6">
      <g>
       <use style="stroke:#000000;stroke-width:0.8;" x="367.68" xlink:href="#m0ba3dc0920" y="504"/>
      </g>
     </g>
     <g id="text_6">
      <!-- 30000 -->
      <defs>
       <path d="M 40.578125 39.3125 
Q 47.65625 37.796875 51.625 33 
Q 55.609375 28.21875 55.609375 21.1875 
Q 55.609375 10.40625 48.1875 4.484375 
Q 40.765625 -1.421875 27.09375 -1.421875 
Q 22.515625 -1.421875 17.65625 -0.515625 
Q 12.796875 0.390625 7.625 2.203125 
L 7.625 11.71875 
Q 11.71875 9.328125 16.59375 8.109375 
Q 21.484375 6.890625 26.8125 6.890625 
Q 36.078125 6.890625 40.9375 10.546875 
Q 45.796875 14.203125 45.796875 21.1875 
Q 45.796875 27.640625 41.28125 31.265625 
Q 36.765625 34.90625 28.71875 34.90625 
L 20.21875 34.90625 
L 20.21875 43.015625 
L 29.109375 43.015625 
Q 36.375 43.015625 40.234375 45.921875 
Q 44.09375 48.828125 44.09375 54.296875 
Q 44.09375 59.90625 40.109375 62.90625 
Q 36.140625 65.921875 28.71875 65.921875 
Q 24.65625 65.921875 20.015625 65.03125 
Q 15.375 64.15625 9.8125 62.3125 
L 9.8125 71.09375 
Q 15.4375 72.65625 20.34375 73.4375 
Q 25.25 74.21875 29.59375 74.21875 
Q 40.828125 74.21875 47.359375 69.109375 
Q 53.90625 64.015625 53.90625 55.328125 
Q 53.90625 49.265625 50.4375 45.09375 
Q 46.96875 40.921875 40.578125 39.3125 
z
" id="DejaVuSans-51"/>
      </defs>
      <g transform="translate(351.77375 518.598438)scale(0.1 -0.1)">
       <use xlink:href="#DejaVuSans-51"/>
       <use x="63.623047" xlink:href="#DejaVuSans-48"/>
       <use x="127.246094" xlink:href="#DejaVuSans-48"/>
       <use x="190.869141" xlink:href="#DejaVuSans-48"/>
       <use x="254.492188" xlink:href="#DejaVuSans-48"/>
      </g>
     </g>
    </g>
    <g id="xtick_7">
     <g id="line2d_7">
      <g>
       <use style="stroke:#000000;stroke-width:0.8;" x="425.664" xlink:href="#m0ba3dc0920" y="504"/>
      </g>
     </g>
     <g id="text_7">
      <!-- 32000 -->
      <g transform="translate(409.75775 518.598438)scale(0.1 -0.1)">
       <use xlink:href="#DejaVuSans-51"/>
       <use x="63.623047" xlink:href="#DejaVuSans-50"/>
       <use x="127.246094" xlink:href="#DejaVuSans-48"/>
       <use x="190.869141" xlink:href="#DejaVuSans-48"/>
       <use x="254.492188" xlink:href="#DejaVuSans-48"/>
      </g>
     </g>
    </g>
    <g id="xtick_8">
     <g id="line2d_8">
      <g>
       <use style="stroke:#000000;stroke-width:0.8;" x="483.648" xlink:href="#m0ba3dc0920" y="504"/>
      </g>
     </g>
     <g id="text_8">
      <!-- 34000 -->
      <g transform="translate(467.74175 518.598438)scale(0.1 -0.1)">
       <use xlink:href="#DejaVuSans-51"/>
       <use x="63.623047" xlink:href="#DejaVuSans-52"/>
       <use x="127.246094" xlink:href="#DejaVuSans-48"/>
       <use x="190.869141" xlink:href="#DejaVuSans-48"/>
       <use x="254.492188" xlink:href="#DejaVuSans-48"/>
      </g>
     </g>
    </g>
    <g id="text_9">
     <!-- $\omega_I$ (cm$^{-1}$) -->
     <defs>
      <path d="M 21.390625 -1.421875 
Q 1.125 -1.421875 6.78125 27.59375 
Q 8.984375 39.0625 19.625 54.6875 
L 29.296875 54.6875 
Q 19.234375 39.0625 17 27.34375 
Q 12.796875 6.203125 23.734375 6.203125 
Q 33.84375 6.203125 38.71875 32.46875 
L 47.015625 32.46875 
Q 41.703125 6.0625 51.8125 6.203125 
Q 62.703125 6.296875 66.796875 27.34375 
Q 69.046875 39.0625 65.140625 54.6875 
L 74.8125 54.6875 
Q 79.296875 39.0625 77.09375 27.59375 
Q 71.53125 -1.46875 51.21875 -1.421875 
Q 37.9375 -1.375 39.109375 13.1875 
Q 34.28125 -1.421875 21.390625 -1.421875 
z
" id="DejaVuSans-Oblique-969"/>
      <path d="M 16.890625 72.90625 
L 26.8125 72.90625 
L 12.59375 0 
L 2.6875 0 
z
" id="DejaVuSans-Oblique-73"/>
      <path id="DejaVuSans-32"/>
      <path d="M 31 75.875 
Q 24.46875 64.65625 21.28125 53.65625 
Q 18.109375 42.671875 18.109375 31.390625 
Q 18.109375 20.125 21.3125 9.0625 
Q 24.515625 -2 31 -13.1875 
L 23.1875 -13.1875 
Q 15.875 -1.703125 12.234375 9.375 
Q 8.59375 20.453125 8.59375 31.390625 
Q 8.59375 42.28125 12.203125 53.3125 
Q 15.828125 64.359375 23.1875 75.875 
z
" id="DejaVuSans-40"/>
      <path d="M 48.78125 52.59375 
L 48.78125 44.1875 
Q 44.96875 46.296875 41.140625 47.34375 
Q 37.3125 48.390625 33.40625 48.390625 
Q 24.65625 48.390625 19.8125 42.84375 
Q 14.984375 37.3125 14.984375 27.296875 
Q 14.984375 17.28125 19.8125 11.734375 
Q 24.65625 6.203125 33.40625 6.203125 
Q 37.3125 6.203125 41.140625 7.25 
Q 44.96875 8.296875 48.78125 10.40625 
L 48.78125 2.09375 
Q 45.015625 0.34375 40.984375 -0.53125 
Q 36.96875 -1.421875 32.421875 -1.421875 
Q 20.0625 -1.421875 12.78125 6.34375 
Q 5.515625 14.109375 5.515625 27.296875 
Q 5.515625 40.671875 12.859375 48.328125 
Q 20.21875 56 33.015625 56 
Q 37.15625 56 41.109375 55.140625 
Q 45.0625 54.296875 48.78125 52.59375 
z
" id="DejaVuSans-99"/>
      <path d="M 52 44.1875 
Q 55.375 50.25 60.0625 53.125 
Q 64.75 56 71.09375 56 
Q 79.640625 56 84.28125 50.015625 
Q 88.921875 44.046875 88.921875 33.015625 
L 88.921875 0 
L 79.890625 0 
L 79.890625 32.71875 
Q 79.890625 40.578125 77.09375 44.375 
Q 74.3125 48.1875 68.609375 48.1875 
Q 61.625 48.1875 57.5625 43.546875 
Q 53.515625 38.921875 53.515625 30.90625 
L 53.515625 0 
L 44.484375 0 
L 44.484375 32.71875 
Q 44.484375 40.625 41.703125 44.40625 
Q 38.921875 48.1875 33.109375 48.1875 
Q 26.21875 48.1875 22.15625 43.53125 
Q 18.109375 38.875 18.109375 30.90625 
L 18.109375 0 
L 9.078125 0 
L 9.078125 54.6875 
L 18.109375 54.6875 
L 18.109375 46.1875 
Q 21.1875 51.21875 25.484375 53.609375 
Q 29.78125 56 35.6875 56 
Q 41.65625 56 45.828125 52.96875 
Q 50 49.953125 52 44.1875 
z
" id="DejaVuSans-109"/>
      <path d="M 10.59375 35.5 
L 73.1875 35.5 
L 73.1875 27.203125 
L 10.59375 27.203125 
z
" id="DejaVuSans-8722"/>
      <path d="M 12.40625 8.296875 
L 28.515625 8.296875 
L 28.515625 63.921875 
L 10.984375 60.40625 
L 10.984375 69.390625 
L 28.421875 72.90625 
L 38.28125 72.90625 
L 38.28125 8.296875 
L 54.390625 8.296875 
L 54.390625 0 
L 12.40625 0 
z
" id="DejaVuSans-49"/>
      <path d="M 8.015625 75.875 
L 15.828125 75.875 
Q 23.140625 64.359375 26.78125 53.3125 
Q 30.421875 42.28125 30.421875 31.390625 
Q 30.421875 20.453125 26.78125 9.375 
Q 23.140625 -1.703125 15.828125 -13.1875 
L 8.015625 -13.1875 
Q 14.5 -2 17.703125 9.0625 
Q 20.90625 20.125 20.90625 31.390625 
Q 20.90625 42.671875 17.703125 53.65625 
Q 14.5 64.65625 8.015625 75.875 
z
" id="DejaVuSans-41"/>
     </defs>
     <g transform="translate(271.35 533.298437)scale(0.1 -0.1)">
      <use transform="translate(0 0.684375)" xlink:href="#DejaVuSans-Oblique-969"/>
      <use transform="translate(83.740234 -15.721875)scale(0.7)" xlink:href="#DejaVuSans-Oblique-73"/>
      <use transform="translate(107.119141 0.684375)" xlink:href="#DejaVuSans-32"/>
      <use transform="translate(138.90625 0.684375)" xlink:href="#DejaVuSans-40"/>
      <use transform="translate(177.919922 0.684375)" xlink:href="#DejaVuSans-99"/>
      <use transform="translate(232.900391 0.684375)" xlink:href="#DejaVuSans-109"/>
      <use transform="translate(331.269531 38.965625)scale(0.7)" xlink:href="#DejaVuSans-8722"/>
      <use transform="translate(389.921875 38.965625)scale(0.7)" xlink:href="#DejaVuSans-49"/>
      <use transform="translate(437.192383 0.684375)" xlink:href="#DejaVuSans-41"/>
     </g>
    </g>
   </g>
   <g id="matplotlib.axis_2">
    <g id="ytick_1">
     <g id="line2d_9">
      <defs>
       <path d="M 0 0 
L -3.5 0 
" id="m1f5c947d47" style="stroke:#000000;stroke-width:0.8;"/>
      </defs>
      <g>
       <use style="stroke:#000000;stroke-width:0.8;" x="77.76" xlink:href="#m1f5c947d47" y="504"/>
      </g>
     </g>
     <g id="text_10">
      <!-- 0 -->
      <g transform="translate(64.3975 507.799219)scale(0.1 -0.1)">
       <use xlink:href="#DejaVuSans-48"/>
      </g>
     </g>
    </g>
    <g id="ytick_2">
     <g id="line2d_10">
      <g>
       <use style="stroke:#000000;stroke-width:0.8;" x="77.76" xlink:href="#m1f5c947d47" y="446.778947"/>
      </g>
     </g>
     <g id="text_11">
      <!-- 50 -->
      <defs>
       <path d="M 10.796875 72.90625 
L 49.515625 72.90625 
L 49.515625 64.59375 
L 19.828125 64.59375 
L 19.828125 46.734375 
Q 21.96875 47.46875 24.109375 47.828125 
Q 26.265625 48.1875 28.421875 48.1875 
Q 40.625 48.1875 47.75 41.5 
Q 54.890625 34.8125 54.890625 23.390625 
Q 54.890625 11.625 47.5625 5.09375 
Q 40.234375 -1.421875 26.90625 -1.421875 
Q 22.3125 -1.421875 17.546875 -0.640625 
Q 12.796875 0.140625 7.71875 1.703125 
L 7.71875 11.625 
Q 12.109375 9.234375 16.796875 8.0625 
Q 21.484375 6.890625 26.703125 6.890625 
Q 35.15625 6.890625 40.078125 11.328125 
Q 45.015625 15.765625 45.015625 23.390625 
Q 45.015625 31 40.078125 35.4375 
Q 35.15625 39.890625 26.703125 39.890625 
Q 22.75 39.890625 18.8125 39.015625 
Q 14.890625 38.140625 10.796875 36.28125 
z
" id="DejaVuSans-53"/>
      </defs>
      <g transform="translate(58.035 450.578166)scale(0.1 -0.1)">
       <use xlink:href="#DejaVuSans-53"/>
       <use x="63.623047" xlink:href="#DejaVuSans-48"/>
      </g>
     </g>
    </g>
    <g id="ytick_3">
     <g id="line2d_11">
      <g>
       <use style="stroke:#000000;stroke-width:0.8;" x="77.76" xlink:href="#m1f5c947d47" y="389.557895"/>
      </g>
     </g>
     <g id="text_12">
      <!-- 100 -->
      <g transform="translate(51.6725 393.357113)scale(0.1 -0.1)">
       <use xlink:href="#DejaVuSans-49"/>
       <use x="63.623047" xlink:href="#DejaVuSans-48"/>
       <use x="127.246094" xlink:href="#DejaVuSans-48"/>
      </g>
     </g>
    </g>
    <g id="ytick_4">
     <g id="line2d_12">
      <g>
       <use style="stroke:#000000;stroke-width:0.8;" x="77.76" xlink:href="#m1f5c947d47" y="332.336842"/>
      </g>
     </g>
     <g id="text_13">
      <!-- 150 -->
      <g transform="translate(51.6725 336.136061)scale(0.1 -0.1)">
       <use xlink:href="#DejaVuSans-49"/>
       <use x="63.623047" xlink:href="#DejaVuSans-53"/>
       <use x="127.246094" xlink:href="#DejaVuSans-48"/>
      </g>
     </g>
    </g>
    <g id="ytick_5">
     <g id="line2d_13">
      <g>
       <use style="stroke:#000000;stroke-width:0.8;" x="77.76" xlink:href="#m1f5c947d47" y="275.115789"/>
      </g>
     </g>
     <g id="text_14">
      <!-- 200 -->
      <g transform="translate(51.6725 278.915008)scale(0.1 -0.1)">
       <use xlink:href="#DejaVuSans-50"/>
       <use x="63.623047" xlink:href="#DejaVuSans-48"/>
       <use x="127.246094" xlink:href="#DejaVuSans-48"/>
      </g>
     </g>
    </g>
    <g id="ytick_6">
     <g id="line2d_14">
      <g>
       <use style="stroke:#000000;stroke-width:0.8;" x="77.76" xlink:href="#m1f5c947d47" y="217.894737"/>
      </g>
     </g>
     <g id="text_15">
      <!-- 250 -->
      <g transform="translate(51.6725 221.693956)scale(0.1 -0.1)">
       <use xlink:href="#DejaVuSans-50"/>
       <use x="63.623047" xlink:href="#DejaVuSans-53"/>
       <use x="127.246094" xlink:href="#DejaVuSans-48"/>
      </g>
     </g>
    </g>
    <g id="ytick_7">
     <g id="line2d_15">
      <g>
       <use style="stroke:#000000;stroke-width:0.8;" x="77.76" xlink:href="#m1f5c947d47" y="160.673684"/>
      </g>
     </g>
     <g id="text_16">
      <!-- 300 -->
      <g transform="translate(51.6725 164.472903)scale(0.1 -0.1)">
       <use xlink:href="#DejaVuSans-51"/>
       <use x="63.623047" xlink:href="#DejaVuSans-48"/>
       <use x="127.246094" xlink:href="#DejaVuSans-48"/>
      </g>
     </g>
    </g>
    <g id="ytick_8">
     <g id="line2d_16">
      <g>
       <use style="stroke:#000000;stroke-width:0.8;" x="77.76" xlink:href="#m1f5c947d47" y="103.452632"/>
      </g>
     </g>
     <g id="text_17">
      <!-- 350 -->
      <g transform="translate(51.6725 107.25185)scale(0.1 -0.1)">
       <use xlink:href="#DejaVuSans-51"/>
       <use x="63.623047" xlink:href="#DejaVuSans-53"/>
       <use x="127.246094" xlink:href="#DejaVuSans-48"/>
      </g>
     </g>
    </g>
    <g id="text_18">
     <!-- ABSORPTION/FLUORESCENCE INTENSITY -->
     <defs>
      <path d="M 34.1875 63.1875 
L 20.796875 26.90625 
L 47.609375 26.90625 
z
M 28.609375 72.90625 
L 39.796875 72.90625 
L 67.578125 0 
L 57.328125 0 
L 50.6875 18.703125 
L 17.828125 18.703125 
L 11.1875 0 
L 0.78125 0 
z
" id="DejaVuSans-65"/>
      <path d="M 19.671875 34.8125 
L 19.671875 8.109375 
L 35.5 8.109375 
Q 43.453125 8.109375 47.28125 11.40625 
Q 51.125 14.703125 51.125 21.484375 
Q 51.125 28.328125 47.28125 31.5625 
Q 43.453125 34.8125 35.5 34.8125 
z
M 19.671875 64.796875 
L 19.671875 42.828125 
L 34.28125 42.828125 
Q 41.5 42.828125 45.03125 45.53125 
Q 48.578125 48.25 48.578125 53.8125 
Q 48.578125 59.328125 45.03125 62.0625 
Q 41.5 64.796875 34.28125 64.796875 
z
M 9.8125 72.90625 
L 35.015625 72.90625 
Q 46.296875 72.90625 52.390625 68.21875 
Q 58.5 63.53125 58.5 54.890625 
Q 58.5 48.1875 55.375 44.234375 
Q 52.25 40.28125 46.1875 39.3125 
Q 53.46875 37.75 57.5 32.78125 
Q 61.53125 27.828125 61.53125 20.40625 
Q 61.53125 10.640625 54.890625 5.3125 
Q 48.25 0 35.984375 0 
L 9.8125 0 
z
" id="DejaVuSans-66"/>
      <path d="M 53.515625 70.515625 
L 53.515625 60.890625 
Q 47.90625 63.578125 42.921875 64.890625 
Q 37.9375 66.21875 33.296875 66.21875 
Q 25.25 66.21875 20.875 63.09375 
Q 16.5 59.96875 16.5 54.203125 
Q 16.5 49.359375 19.40625 46.890625 
Q 22.3125 44.4375 30.421875 42.921875 
L 36.375 41.703125 
Q 47.40625 39.59375 52.65625 34.296875 
Q 57.90625 29 57.90625 20.125 
Q 57.90625 9.515625 50.796875 4.046875 
Q 43.703125 -1.421875 29.984375 -1.421875 
Q 24.8125 -1.421875 18.96875 -0.25 
Q 13.140625 0.921875 6.890625 3.21875 
L 6.890625 13.375 
Q 12.890625 10.015625 18.65625 8.296875 
Q 24.421875 6.59375 29.984375 6.59375 
Q 38.421875 6.59375 43.015625 9.90625 
Q 47.609375 13.234375 47.609375 19.390625 
Q 47.609375 24.75 44.3125 27.78125 
Q 41.015625 30.8125 33.5 32.328125 
L 27.484375 33.5 
Q 16.453125 35.6875 11.515625 40.375 
Q 6.59375 45.0625 6.59375 53.421875 
Q 6.59375 63.09375 13.40625 68.65625 
Q 20.21875 74.21875 32.171875 74.21875 
Q 37.3125 74.21875 42.625 73.28125 
Q 47.953125 72.359375 53.515625 70.515625 
z
" id="DejaVuSans-83"/>
      <path d="M 39.40625 66.21875 
Q 28.65625 66.21875 22.328125 58.203125 
Q 16.015625 50.203125 16.015625 36.375 
Q 16.015625 22.609375 22.328125 14.59375 
Q 28.65625 6.59375 39.40625 6.59375 
Q 50.140625 6.59375 56.421875 14.59375 
Q 62.703125 22.609375 62.703125 36.375 
Q 62.703125 50.203125 56.421875 58.203125 
Q 50.140625 66.21875 39.40625 66.21875 
z
M 39.40625 74.21875 
Q 54.734375 74.21875 63.90625 63.9375 
Q 73.09375 53.65625 73.09375 36.375 
Q 73.09375 19.140625 63.90625 8.859375 
Q 54.734375 -1.421875 39.40625 -1.421875 
Q 24.03125 -1.421875 14.8125 8.828125 
Q 5.609375 19.09375 5.609375 36.375 
Q 5.609375 53.65625 14.8125 63.9375 
Q 24.03125 74.21875 39.40625 74.21875 
z
" id="DejaVuSans-79"/>
      <path d="M 44.390625 34.1875 
Q 47.5625 33.109375 50.5625 29.59375 
Q 53.5625 26.078125 56.59375 19.921875 
L 66.609375 0 
L 56 0 
L 46.6875 18.703125 
Q 43.0625 26.03125 39.671875 28.421875 
Q 36.28125 30.8125 30.421875 30.8125 
L 19.671875 30.8125 
L 19.671875 0 
L 9.8125 0 
L 9.8125 72.90625 
L 32.078125 72.90625 
Q 44.578125 72.90625 50.734375 67.671875 
Q 56.890625 62.453125 56.890625 51.90625 
Q 56.890625 45.015625 53.6875 40.46875 
Q 50.484375 35.9375 44.390625 34.1875 
z
M 19.671875 64.796875 
L 19.671875 38.921875 
L 32.078125 38.921875 
Q 39.203125 38.921875 42.84375 42.21875 
Q 46.484375 45.515625 46.484375 51.90625 
Q 46.484375 58.296875 42.84375 61.546875 
Q 39.203125 64.796875 32.078125 64.796875 
z
" id="DejaVuSans-82"/>
      <path d="M 19.671875 64.796875 
L 19.671875 37.40625 
L 32.078125 37.40625 
Q 38.96875 37.40625 42.71875 40.96875 
Q 46.484375 44.53125 46.484375 51.125 
Q 46.484375 57.671875 42.71875 61.234375 
Q 38.96875 64.796875 32.078125 64.796875 
z
M 9.8125 72.90625 
L 32.078125 72.90625 
Q 44.34375 72.90625 50.609375 67.359375 
Q 56.890625 61.8125 56.890625 51.125 
Q 56.890625 40.328125 50.609375 34.8125 
Q 44.34375 29.296875 32.078125 29.296875 
L 19.671875 29.296875 
L 19.671875 0 
L 9.8125 0 
z
" id="DejaVuSans-80"/>
      <path d="M -0.296875 72.90625 
L 61.375 72.90625 
L 61.375 64.59375 
L 35.5 64.59375 
L 35.5 0 
L 25.59375 0 
L 25.59375 64.59375 
L -0.296875 64.59375 
z
" id="DejaVuSans-84"/>
      <path d="M 9.8125 72.90625 
L 19.671875 72.90625 
L 19.671875 0 
L 9.8125 0 
z
" id="DejaVuSans-73"/>
      <path d="M 9.8125 72.90625 
L 23.09375 72.90625 
L 55.421875 11.921875 
L 55.421875 72.90625 
L 64.984375 72.90625 
L 64.984375 0 
L 51.703125 0 
L 19.390625 60.984375 
L 19.390625 0 
L 9.8125 0 
z
" id="DejaVuSans-78"/>
      <path d="M 25.390625 72.90625 
L 33.6875 72.90625 
L 8.296875 -9.28125 
L 0 -9.28125 
z
" id="DejaVuSans-47"/>
      <path d="M 9.8125 72.90625 
L 51.703125 72.90625 
L 51.703125 64.59375 
L 19.671875 64.59375 
L 19.671875 43.109375 
L 48.578125 43.109375 
L 48.578125 34.8125 
L 19.671875 34.8125 
L 19.671875 0 
L 9.8125 0 
z
" id="DejaVuSans-70"/>
      <path d="M 9.8125 72.90625 
L 19.671875 72.90625 
L 19.671875 8.296875 
L 55.171875 8.296875 
L 55.171875 0 
L 9.8125 0 
z
" id="DejaVuSans-76"/>
      <path d="M 8.6875 72.90625 
L 18.609375 72.90625 
L 18.609375 28.609375 
Q 18.609375 16.890625 22.84375 11.734375 
Q 27.09375 6.59375 36.625 6.59375 
Q 46.09375 6.59375 50.34375 11.734375 
Q 54.59375 16.890625 54.59375 28.609375 
L 54.59375 72.90625 
L 64.5 72.90625 
L 64.5 27.390625 
Q 64.5 13.140625 57.4375 5.859375 
Q 50.390625 -1.421875 36.625 -1.421875 
Q 22.796875 -1.421875 15.734375 5.859375 
Q 8.6875 13.140625 8.6875 27.390625 
z
" id="DejaVuSans-85"/>
      <path d="M 9.8125 72.90625 
L 55.90625 72.90625 
L 55.90625 64.59375 
L 19.671875 64.59375 
L 19.671875 43.015625 
L 54.390625 43.015625 
L 54.390625 34.71875 
L 19.671875 34.71875 
L 19.671875 8.296875 
L 56.78125 8.296875 
L 56.78125 0 
L 9.8125 0 
z
" id="DejaVuSans-69"/>
      <path d="M 64.40625 67.28125 
L 64.40625 56.890625 
Q 59.421875 61.53125 53.78125 63.8125 
Q 48.140625 66.109375 41.796875 66.109375 
Q 29.296875 66.109375 22.65625 58.46875 
Q 16.015625 50.828125 16.015625 36.375 
Q 16.015625 21.96875 22.65625 14.328125 
Q 29.296875 6.6875 41.796875 6.6875 
Q 48.140625 6.6875 53.78125 8.984375 
Q 59.421875 11.28125 64.40625 15.921875 
L 64.40625 5.609375 
Q 59.234375 2.09375 53.4375 0.328125 
Q 47.65625 -1.421875 41.21875 -1.421875 
Q 24.65625 -1.421875 15.125 8.703125 
Q 5.609375 18.84375 5.609375 36.375 
Q 5.609375 53.953125 15.125 64.078125 
Q 24.65625 74.21875 41.21875 74.21875 
Q 47.75 74.21875 53.53125 72.484375 
Q 59.328125 70.75 64.40625 67.28125 
z
" id="DejaVuSans-67"/>
      <path d="M -0.203125 72.90625 
L 10.40625 72.90625 
L 30.609375 42.921875 
L 50.6875 72.90625 
L 61.28125 72.90625 
L 35.5 34.71875 
L 35.5 0 
L 25.59375 0 
L 25.59375 34.71875 
z
" id="DejaVuSans-89"/>
     </defs>
     <g transform="translate(45.592812 388.517812)rotate(-90)scale(0.1 -0.1)">
      <use xlink:href="#DejaVuSans-65"/>
      <use x="68.408203" xlink:href="#DejaVuSans-66"/>
      <use x="136.996094" xlink:href="#DejaVuSans-83"/>
      <use x="200.472656" xlink:href="#DejaVuSans-79"/>
      <use x="279.183594" xlink:href="#DejaVuSans-82"/>
      <use x="348.666016" xlink:href="#DejaVuSans-80"/>
      <use x="408.96875" xlink:href="#DejaVuSans-84"/>
      <use x="470.052734" xlink:href="#DejaVuSans-73"/>
      <use x="499.544922" xlink:href="#DejaVuSans-79"/>
      <use x="578.255859" xlink:href="#DejaVuSans-78"/>
      <use x="653.060547" xlink:href="#DejaVuSans-47"/>
      <use x="686.751953" xlink:href="#DejaVuSans-70"/>
      <use x="744.271484" xlink:href="#DejaVuSans-76"/>
      <use x="799.90625" xlink:href="#DejaVuSans-85"/>
      <use x="873.099609" xlink:href="#DejaVuSans-79"/>
      <use x="951.810547" xlink:href="#DejaVuSans-82"/>
      <use x="1021.292969" xlink:href="#DejaVuSans-69"/>
      <use x="1084.476562" xlink:href="#DejaVuSans-83"/>
      <use x="1147.953125" xlink:href="#DejaVuSans-67"/>
      <use x="1217.777344" xlink:href="#DejaVuSans-69"/>
      <use x="1280.960938" xlink:href="#DejaVuSans-78"/>
      <use x="1355.765625" xlink:href="#DejaVuSans-67"/>
      <use x="1425.589844" xlink:href="#DejaVuSans-69"/>
      <use x="1488.773438" xlink:href="#DejaVuSans-32"/>
      <use x="1520.560547" xlink:href="#DejaVuSans-73"/>
      <use x="1550.052734" xlink:href="#DejaVuSans-78"/>
      <use x="1624.857422" xlink:href="#DejaVuSans-84"/>
      <use x="1685.941406" xlink:href="#DejaVuSans-69"/>
      <use x="1749.125" xlink:href="#DejaVuSans-78"/>
      <use x="1823.929688" xlink:href="#DejaVuSans-83"/>
      <use x="1887.40625" xlink:href="#DejaVuSans-73"/>
      <use x="1916.898438" xlink:href="#DejaVuSans-84"/>
      <use x="1977.982422" xlink:href="#DejaVuSans-89"/>
     </g>
    </g>
   </g>
   <g id="line2d_17">
    <path clip-path="url(#p470fc83b3e)" d="M -1 503.427325 
L 577 503.427325 
M 577 503.36719 
L 423.237778 503.197736 
L 373.880264 502.945018 
L 348.930313 502.612796 
L 333.878983 502.206283 
L 323.709166 501.723036 
L 316.386897 501.164432 
L 310.827397 500.526039 
L 306.488275 499.811525 
L 302.962738 499.009189 
L 300.11519 498.141395 
L 297.674433 497.169341 
L 295.64047 496.131955 
L 293.877702 495.002593 
L 292.250531 493.703326 
L 290.758958 492.221918 
L 289.402982 490.553354 
L 288.182604 488.70434 
L 286.962226 486.418985 
L 285.877445 483.902696 
L 284.792665 480.777498 
L 283.843482 477.379661 
L 282.894299 473.154693 
L 281.945116 467.817006 
L 281.131531 462.04626 
L 280.317945 454.780246 
L 279.50436 445.48124 
L 278.690774 433.36676 
L 277.877189 417.282273 
L 277.199201 399.631967 
L 276.521213 376.64562 
L 275.843226 346.457476 
L 275.165238 306.816045 
L 274.351652 244.036063 
L 272.182091 59.801272 
L 271.910896 54.491507 
L 271.775299 54.720074 
L 271.639701 56.8769 
L 271.368506 66.697428 
L 270.961713 93.090216 
L 270.148128 168.563368 
L 269.063347 266.771923 
L 268.249762 321.614872 
L 267.436177 360.896677 
L 266.622591 388.340066 
L 265.944603 404.518185 
L 265.266616 416.040812 
L 264.588628 423.7704 
L 264.046237 427.573739 
L 263.639445 429.138917 
L 263.36825 429.593846 
L 263.097055 429.594239 
L 262.825859 429.16083 
L 262.419067 427.77519 
L 261.741079 424.099577 
L 261.063091 420.553316 
L 260.791896 419.845678 
L 260.656298 419.743461 
L 260.520701 419.834535 
L 260.249506 420.644026 
L 259.978311 422.310103 
L 259.571518 426.262653 
L 258.757932 437.328919 
L 257.537554 453.711714 
L 256.723969 461.760222 
L 255.910384 467.503 
L 255.232396 470.875048 
L 254.554408 473.274812 
L 253.740823 475.299205 
L 252.79164 477.060755 
L 251.978054 478.191948 
L 251.300066 478.754085 
L 250.622079 478.997965 
L 249.808493 479.248368 
L 249.266103 479.678978 
L 248.723713 480.433076 
L 247.77453 482.292555 
L 246.689749 484.321669 
L 246.011761 485.180922 
L 245.469371 485.595079 
L 244.926981 485.76859 
L 244.384591 485.708352 
L 243.8422 485.421398 
L 243.164213 484.760654 
L 242.350627 483.584906 
L 241.401444 481.790278 
L 240.587859 479.774238 
L 239.909871 477.501809 
L 239.231883 474.498979 
L 238.2827 469.103917 
L 232.452005 432.289599 
L 231.774017 425.370422 
L 230.418042 410.228831 
L 230.011249 408.126449 
L 229.740054 407.822927 
L 229.604456 407.991423 
L 229.333261 408.883894 
L 228.790871 412.11898 
L 227.977285 416.987389 
L 227.570493 418.147924 
L 227.299298 418.291083 
L 227.028102 417.962041 
L 226.62131 416.804136 
L 225.943322 414.618633 
L 225.672127 414.338662 
L 225.536529 414.442484 
L 225.265334 415.242846 
L 224.994139 416.904153 
L 224.587346 420.959411 
L 223.909358 430.637109 
L 222.417785 452.611021 
L 221.6042 461.254998 
L 220.926212 466.467574 
L 220.248224 470.112656 
L 219.570236 472.581322 
L 216.993883 479.869239 
L 216.180297 481.774117 
L 215.50231 482.759732 
L 214.824322 483.315057 
L 214.010736 483.924426 
L 213.468346 484.633072 
L 212.790358 485.984373 
L 210.349602 491.418699 
L 209.536017 492.585205 
L 208.722431 493.388953 
L 207.637651 494.113026 
L 204.790102 495.661572 
L 203.705321 495.908172 
L 200.315382 496.248856 
L 198.823809 496.110938 
L 197.874626 495.833582 
L 196.925443 495.299649 
L 192.993114 492.440337 
L 191.501541 491.226782 
L 190.009967 490.112529 
L 187.976004 488.309524 
L 187.569211 488.277879 
L 187.026821 488.471771 
L 185.806443 489.022083 
L 185.264053 488.948315 
L 184.586065 488.552941 
L 183.772479 488.104885 
L 183.365687 488.138315 
L 182.958894 488.428115 
L 182.416504 489.160866 
L 180.789333 491.702527 
L 180.111345 492.302539 
L 178.077382 493.679041 
L 176.992601 495.068284 
L 175.501028 496.938884 
L 174.551845 497.825587 
L 173.602662 498.412303 
L 172.382284 498.854258 
L 170.619516 499.51263 
L 168.992345 500.094927 
L 167.093979 500.475175 
L 161.263284 501.487213 
L 156.517369 501.689276 
L 151.907052 501.596421 
L 141.194844 501.298535 
L 139.025283 501.567762 
L 125.329929 502.693589 
L 114.888917 502.936351 
L 71.090904 503.214582 
L -1 503.328811 
L -1 503.328811 
" style="fill:none;stroke:#1f77b4;stroke-linecap:square;stroke-width:1.5;"/>
   </g>
   <g id="line2d_18">
    <path clip-path="url(#p470fc83b3e)" d="M -1 503.427323 
L 577 503.427323 
M 577 503.350706 
L 463.103462 503.17664 
L 422.830985 502.836136 
L 415.779912 502.579826 
L 409.813619 502.069073 
L 404.660911 501.563588 
L 401.270972 501.30265 
L 398.965814 501.304404 
L 396.93185 501.32998 
L 390.694362 501.624439 
L 384.999265 501.640565 
L 380.931338 501.352192 
L 378.897374 500.983328 
L 373.337874 499.608294 
L 371.032716 498.756595 
L 369.812338 498.249638 
L 368.863155 497.565169 
L 367.913972 496.584517 
L 366.557996 494.825152 
L 365.473215 493.492253 
L 364.795228 492.950456 
L 363.032459 491.803367 
L 362.354471 490.91953 
L 360.591703 488.269212 
L 360.18491 488.093418 
L 359.778118 488.160526 
L 359.10013 488.583316 
L 358.422142 488.96354 
L 357.879752 489.016753 
L 357.337362 488.829419 
L 356.116984 488.273008 
L 355.710191 488.323282 
L 355.167801 488.654442 
L 354.08302 489.759102 
L 352.99824 490.699174 
L 350.828679 492.35596 
L 349.472703 493.457464 
L 345.540374 495.95157 
L 344.455593 496.177818 
L 342.96402 496.243762 
L 341.336849 496.064087 
L 338.896093 495.646648 
L 337.811312 495.133065 
L 335.099361 493.462166 
L 334.285776 492.693532 
L 333.47219 491.571717 
L 332.658605 490.05368 
L 331.438227 487.186802 
L 330.353446 484.789114 
L 329.811056 484.021903 
L 329.133068 483.462721 
L 328.319483 482.855227 
L 327.777093 482.166965 
L 327.234702 481.127647 
L 326.421117 478.968765 
L 324.387154 473.243734 
L 323.709166 471.050243 
L 323.166775 468.598068 
L 322.488788 464.264714 
L 321.8108 458.238545 
L 320.997214 448.546182 
L 319.912434 432.101296 
L 319.098849 420.451902 
L 318.556458 415.711946 
L 318.285263 414.623046 
L 318.014068 414.342606 
L 317.742873 414.711619 
L 317.33608 415.983795 
L 316.658092 418.042437 
L 316.386897 418.301477 
L 316.2513 418.253358 
L 315.980105 417.776584 
L 315.573312 416.145215 
L 314.895324 411.827207 
L 314.352934 408.698973 
L 314.081739 407.916281 
L 313.946141 407.812717 
L 313.810544 407.923252 
L 313.539348 408.811739 
L 313.132556 411.715591 
L 312.454568 419.307007 
L 311.369787 431.467011 
L 310.6918 436.645817 
L 304.589909 474.028371 
L 303.776324 477.666074 
L 302.962738 480.271356 
L 302.149153 482.163412 
L 301.19997 483.873696 
L 300.386385 484.965473 
L 299.708397 485.540376 
L 299.166007 485.753567 
L 298.623616 485.737628 
L 298.081226 485.485637 
L 297.538836 484.99116 
L 296.860848 484.035111 
L 295.911665 482.203132 
L 294.826885 480.150122 
L 294.284494 479.502661 
L 293.742104 479.167082 
L 292.114933 478.540388 
L 291.572543 477.982102 
L 290.758958 476.761954 
L 289.809775 474.910462 
L 289.131787 473.145978 
L 288.453799 470.693477 
L 287.775811 467.250002 
L 287.097823 462.522459 
L 286.419836 456.224365 
L 285.60625 446.374945 
L 283.843482 423.06777 
L 283.436689 420.45861 
L 283.165494 419.783881 
L 283.029896 419.755684 
L 282.758701 420.243801 
L 282.351909 421.998088 
L 280.995933 428.918716 
L 280.724738 429.493583 
L 280.453543 429.644248 
L 280.182348 429.346462 
L 279.911152 428.584343 
L 279.50436 426.543115 
L 279.097567 423.382269 
L 278.555177 417.306546 
L 278.012787 408.866203 
L 277.334799 394.377886 
L 276.656811 374.418711 
L 275.978823 347.33958 
L 275.300835 311.031874 
L 274.622847 263.393929 
L 273.673665 177.695258 
L 272.588884 80.025708 
L 272.182091 59.432319 
L 271.910896 54.437727 
L 271.775299 54.823682 
L 271.504103 61.323013 
L 271.097311 83.872902 
L 270.419323 143.601047 
L 268.92775 280.886436 
L 268.114164 334.282719 
L 267.300579 372.991577 
L 266.486994 400.890688 
L 265.673408 421.228116 
L 264.859823 436.317644 
L 264.046237 447.730858 
L 263.097055 457.792737 
L 262.147872 465.393881 
L 261.198689 471.259195 
L 260.249506 475.871114 
L 259.164725 480.024028 
L 258.079945 483.301598 
L 256.995164 485.932 
L 255.774786 488.313796 
L 254.554408 490.235412 
L 253.198432 491.964996 
L 251.706859 493.496732 
L 250.079688 494.83693 
L 248.31692 495.99925 
L 246.282957 497.064597 
L 243.977798 498.011834 
L 241.265847 498.873599 
L 238.147103 499.628107 
L 234.350371 500.31371 
L 229.604456 500.933596 
L 223.638163 501.477322 
L 215.909102 501.948711 
L 205.332492 502.356148 
L 190.41676 502.692637 
L 167.771967 502.962886 
L 129.940247 503.168014 
L 56.581964 503.309759 
L -1 503.352712 
L -1 503.352712 
" style="fill:none;stroke:#ff7f0e;stroke-linecap:square;stroke-width:1.5;"/>
   </g>
   <g id="patch_3">
    <path d="M 77.76 504 
L 77.76 69.12 
" style="fill:none;stroke:#000000;stroke-linecap:square;stroke-linejoin:miter;stroke-width:0.8;"/>
   </g>
   <g id="patch_4">
    <path d="M 512.64 504 
L 512.64 69.12 
" style="fill:none;stroke:#000000;stroke-linecap:square;stroke-linejoin:miter;stroke-width:0.8;"/>
   </g>
   <g id="patch_5">
    <path d="M 77.76 504 
L 512.64 504 
" style="fill:none;stroke:#000000;stroke-linecap:square;stroke-linejoin:miter;stroke-width:0.8;"/>
   </g>
   <g id="patch_6">
    <path d="M 77.76 69.12 
L 512.64 69.12 
" style="fill:none;stroke:#000000;stroke-linecap:square;stroke-linejoin:miter;stroke-width:0.8;"/>
   </g>
  </g>
 </g>
 <defs>
  <clipPath id="p470fc83b3e">
   <rect height="434.88" width="434.88" x="77.76" y="69.12"/>
  </clipPath>
 </defs>
</svg>
