<?xml version="1.0" encoding="utf-8" standalone="no"?>
<!DOCTYPE svg PUBLIC "-//W3C//DTD SVG 1.1//EN"
  "http://www.w3.org/Graphics/SVG/1.1/DTD/svg11.dtd">
<!-- Created with matplotlib (https://matplotlib.org/) -->
<svg height="576pt" version="1.1" viewBox="0 0 576 576" width="576pt" xmlns="http://www.w3.org/2000/svg" xmlns:xlink="http://www.w3.org/1999/xlink">
 <defs>
  <style type="text/css">
*{stroke-linecap:butt;stroke-linejoin:round;white-space:pre;}
  </style>
 </defs>
 <g id="figure_1">
  <g id="patch_1">
   <path d="M 0 576 
L 576 576 
L 576 0 
L 0 0 
z
" style="fill:#ffffff;"/>
  </g>
  <g id="axes_1">
   <g id="patch_2">
    <path d="M 72 207.247059 
L 203.294118 207.247059 
L 203.294118 75.952941 
L 72 75.952941 
z
" style="fill:none;"/>
   </g>
   <g id="matplotlib.axis_1">
    <g id="xtick_1">
     <g id="line2d_1">
      <defs>
       <path d="M 0 0 
L 0 3.5 
" id="m960a0f04ff" style="stroke:#000000;stroke-width:0.8;"/>
      </defs>
      <g>
       <use style="stroke:#000000;stroke-width:0.8;" x="98.258824" xlink:href="#m960a0f04ff" y="207.247059"/>
      </g>
     </g>
    </g>
    <g id="xtick_2">
     <g id="line2d_2">
      <g>
       <use style="stroke:#000000;stroke-width:0.8;" x="131.082353" xlink:href="#m960a0f04ff" y="207.247059"/>
      </g>
     </g>
    </g>
    <g id="xtick_3">
     <g id="line2d_3">
      <g>
       <use style="stroke:#000000;stroke-width:0.8;" x="163.905882" xlink:href="#m960a0f04ff" y="207.247059"/>
      </g>
     </g>
    </g>
    <g id="xtick_4">
     <g id="line2d_4">
      <g>
       <use style="stroke:#000000;stroke-width:0.8;" x="196.729412" xlink:href="#m960a0f04ff" y="207.247059"/>
      </g>
     </g>
    </g>
   </g>
   <g id="matplotlib.axis_2">
    <g id="ytick_1">
     <g id="line2d_5">
      <defs>
       <path d="M 0 0 
L -3.5 0 
" id="m0fae194259" style="stroke:#000000;stroke-width:0.8;"/>
      </defs>
      <g>
       <use style="stroke:#000000;stroke-width:0.8;" x="72" xlink:href="#m0fae194259" y="207.247059"/>
      </g>
     </g>
     <g id="text_1">
      <!-- 0 -->
      <defs>
       <path d="M 31.78125 66.40625 
Q 24.171875 66.40625 20.328125 58.90625 
Q 16.5 51.421875 16.5 36.375 
Q 16.5 21.390625 20.328125 13.890625 
Q 24.171875 6.390625 31.78125 6.390625 
Q 39.453125 6.390625 43.28125 13.890625 
Q 47.125 21.390625 47.125 36.375 
Q 47.125 51.421875 43.28125 58.90625 
Q 39.453125 66.40625 31.78125 66.40625 
z
M 31.78125 74.21875 
Q 44.046875 74.21875 50.515625 64.515625 
Q 56.984375 54.828125 56.984375 36.375 
Q 56.984375 17.96875 50.515625 8.265625 
Q 44.046875 -1.421875 31.78125 -1.421875 
Q 19.53125 -1.421875 13.0625 8.265625 
Q 6.59375 17.96875 6.59375 36.375 
Q 6.59375 54.828125 13.0625 64.515625 
Q 19.53125 74.21875 31.78125 74.21875 
z
" id="DejaVuSans-48"/>
      </defs>
      <g transform="translate(58.6375 211.046278)scale(0.1 -0.1)">
       <use xlink:href="#DejaVuSans-48"/>
      </g>
     </g>
    </g>
    <g id="ytick_2">
     <g id="line2d_6">
      <g>
       <use style="stroke:#000000;stroke-width:0.8;" x="72" xlink:href="#m0fae194259" y="174.650155"/>
      </g>
     </g>
     <g id="text_2">
      <!-- 50 -->
      <defs>
       <path d="M 10.796875 72.90625 
L 49.515625 72.90625 
L 49.515625 64.59375 
L 19.828125 64.59375 
L 19.828125 46.734375 
Q 21.96875 47.46875 24.109375 47.828125 
Q 26.265625 48.1875 28.421875 48.1875 
Q 40.625 48.1875 47.75 41.5 
Q 54.890625 34.8125 54.890625 23.390625 
Q 54.890625 11.625 47.5625 5.09375 
Q 40.234375 -1.421875 26.90625 -1.421875 
Q 22.3125 -1.421875 17.546875 -0.640625 
Q 12.796875 0.140625 7.71875 1.703125 
L 7.71875 11.625 
Q 12.109375 9.234375 16.796875 8.0625 
Q 21.484375 6.890625 26.703125 6.890625 
Q 35.15625 6.890625 40.078125 11.328125 
Q 45.015625 15.765625 45.015625 23.390625 
Q 45.015625 31 40.078125 35.4375 
Q 35.15625 39.890625 26.703125 39.890625 
Q 22.75 39.890625 18.8125 39.015625 
Q 14.890625 38.140625 10.796875 36.28125 
z
" id="DejaVuSans-53"/>
      </defs>
      <g transform="translate(52.275 178.449373)scale(0.1 -0.1)">
       <use xlink:href="#DejaVuSans-53"/>
       <use x="63.623047" xlink:href="#DejaVuSans-48"/>
      </g>
     </g>
    </g>
    <g id="ytick_3">
     <g id="line2d_7">
      <g>
       <use style="stroke:#000000;stroke-width:0.8;" x="72" xlink:href="#m0fae194259" y="142.05325"/>
      </g>
     </g>
     <g id="text_3">
      <!-- 100 -->
      <defs>
       <path d="M 12.40625 8.296875 
L 28.515625 8.296875 
L 28.515625 63.921875 
L 10.984375 60.40625 
L 10.984375 69.390625 
L 28.421875 72.90625 
L 38.28125 72.90625 
L 38.28125 8.296875 
L 54.390625 8.296875 
L 54.390625 0 
L 12.40625 0 
z
" id="DejaVuSans-49"/>
      </defs>
      <g transform="translate(45.9125 145.852469)scale(0.1 -0.1)">
       <use xlink:href="#DejaVuSans-49"/>
       <use x="63.623047" xlink:href="#DejaVuSans-48"/>
       <use x="127.246094" xlink:href="#DejaVuSans-48"/>
      </g>
     </g>
    </g>
    <g id="ytick_4">
     <g id="line2d_8">
      <g>
       <use style="stroke:#000000;stroke-width:0.8;" x="72" xlink:href="#m0fae194259" y="109.456346"/>
      </g>
     </g>
     <g id="text_4">
      <!-- 150 -->
      <g transform="translate(45.9125 113.255565)scale(0.1 -0.1)">
       <use xlink:href="#DejaVuSans-49"/>
       <use x="63.623047" xlink:href="#DejaVuSans-53"/>
       <use x="127.246094" xlink:href="#DejaVuSans-48"/>
      </g>
     </g>
    </g>
    <g id="ytick_5">
     <g id="line2d_9">
      <g>
       <use style="stroke:#000000;stroke-width:0.8;" x="72" xlink:href="#m0fae194259" y="76.859442"/>
      </g>
     </g>
     <g id="text_5">
      <!-- 200 -->
      <defs>
       <path d="M 19.1875 8.296875 
L 53.609375 8.296875 
L 53.609375 0 
L 7.328125 0 
L 7.328125 8.296875 
Q 12.9375 14.109375 22.625 23.890625 
Q 32.328125 33.6875 34.8125 36.53125 
Q 39.546875 41.84375 41.421875 45.53125 
Q 43.3125 49.21875 43.3125 52.78125 
Q 43.3125 58.59375 39.234375 62.25 
Q 35.15625 65.921875 28.609375 65.921875 
Q 23.96875 65.921875 18.8125 64.3125 
Q 13.671875 62.703125 7.8125 59.421875 
L 7.8125 69.390625 
Q 13.765625 71.78125 18.9375 73 
Q 24.125 74.21875 28.421875 74.21875 
Q 39.75 74.21875 46.484375 68.546875 
Q 53.21875 62.890625 53.21875 53.421875 
Q 53.21875 48.921875 51.53125 44.890625 
Q 49.859375 40.875 45.40625 35.40625 
Q 44.1875 33.984375 37.640625 27.21875 
Q 31.109375 20.453125 19.1875 8.296875 
z
" id="DejaVuSans-50"/>
      </defs>
      <g transform="translate(45.9125 80.658661)scale(0.1 -0.1)">
       <use xlink:href="#DejaVuSans-50"/>
       <use x="63.623047" xlink:href="#DejaVuSans-48"/>
       <use x="127.246094" xlink:href="#DejaVuSans-48"/>
      </g>
     </g>
    </g>
   </g>
   <g id="line2d_10">
    <path clip-path="url(#pebecda7a10)" d="M 203.325628 207.228363 
L 178.180967 207.207245 
L 175.578192 207.199394 
L 169.907862 206.876441 
L 166.886784 206.299118 
L 165.957222 205.773205 
L 164.841747 205.151765 
L 164.330488 205.12171 
L 163.726272 205.330016 
L 162.471363 206.094894 
L 160.937585 206.909037 
L 160.147457 207.122193 
L 159.58972 207.053616 
L 158.799592 206.686707 
L 157.870029 206.323292 
L 156.940467 206.227234 
L 154.709517 206.301194 
L 153.454608 206.520228 
L 151.967308 206.789849 
L 151.084224 206.710066 
L 150.20114 206.399534 
L 149.271577 205.817112 
L 146.48289 203.594603 
L 145.971631 202.709238 
L 145.460372 201.296244 
L 144.949112 199.174895 
L 144.298419 195.354917 
L 143.182944 188.652386 
L 142.811119 187.71347 
L 142.578728 187.583154 
L 142.346338 187.758944 
L 142.020991 188.40574 
L 141.463254 190.171655 
L 140.115388 195.436158 
L 139.32526 199.29464 
L 138.116829 205.433217 
L 137.791482 206.064327 
L 137.559092 206.114144 
L 137.326701 205.876374 
L 136.954876 205.08329 
L 134.723927 199.546353 
L 133.933799 198.227725 
L 133.469017 197.803268 
L 133.143671 197.767789 
L 132.864802 197.95985 
L 132.492977 198.549246 
L 131.888761 200.061707 
L 131.005677 202.151738 
L 130.494418 202.823903 
L 130.076115 203.053631 
L 129.657812 203.031371 
L 129.193031 202.76042 
L 128.635293 202.159978 
L 127.845165 200.928817 
L 126.404344 198.60947 
L 125.614216 197.485017 
L 125.242391 196.51165 
L 124.824088 194.695618 
L 124.405784 191.779491 
L 123.941003 186.736614 
L 123.476222 179.130934 
L 122.918485 165.867586 
L 121.245272 121.817433 
L 120.919926 119.162625 
L 120.687535 118.559888 
L 120.548101 118.593139 
L 120.362188 118.982105 
L 119.990363 120.509301 
L 118.967845 126.133341 
L 118.456585 129.966522 
L 118.08476 134.473966 
L 117.666457 142.540181 
L 117.10872 158.661033 
L 116.086201 188.918362 
L 115.667898 195.504137 
L 115.296073 198.372732 
L 115.017205 199.206666 
L 114.831292 199.324874 
L 114.64538 199.184065 
L 114.366511 198.607817 
L 113.948208 197.153467 
L 113.297514 193.949224 
L 111.810215 186.186147 
L 111.484868 185.477273 
L 111.298955 185.402542 
L 111.113043 185.582436 
L 110.834174 186.294947 
L 110.369393 188.322773 
L 109.160962 193.939755 
L 108.603224 195.441833 
L 108.138443 196.136341 
L 107.673662 196.464308 
L 107.115925 196.575277 
L 105.582147 196.705454 
L 105.024409 197.128385 
L 104.373716 197.620879 
L 104.094847 197.592781 
L 103.815978 197.290889 
L 103.53711 196.63342 
L 103.211763 195.306516 
L 102.839938 192.859543 
L 102.421635 188.545475 
L 101.956854 181.127303 
L 101.445594 168.878278 
L 100.748423 145.877926 
L 99.911816 120.094075 
L 99.447035 111.927274 
L 98.982254 107.470481 
L 97.634389 97.190826 
L 96.704826 88.388092 
L 96.518914 87.88877 
L 96.425958 87.983349 
L 96.286523 88.638783 
L 96.054133 91.297353 
L 95.728786 98.585712 
L 95.264005 115.139093 
L 93.916139 166.090993 
L 93.311924 179.7195 
L 92.707708 188.491346 
L 92.103493 194.116796 
L 91.499277 197.790407 
L 90.848584 200.405233 
L 90.19789 202.158146 
L 89.500718 203.440254 
L 88.71059 204.42703 
L 87.827506 205.16723 
L 86.804987 205.734535 
L 85.5036 206.194098 
L 83.78391 206.555105 
L 81.274091 206.836756 
L 77.230495 207.04053 
L 71.978468 207.145243 
L 71.978468 207.145243 
" style="fill:none;stroke:#1f77b4;stroke-linecap:square;stroke-width:1.5;"/>
   </g>
   <g id="patch_3">
    <path d="M 72 207.247059 
L 72 75.952941 
" style="fill:none;stroke:#000000;stroke-linecap:square;stroke-linejoin:miter;stroke-width:0.8;"/>
   </g>
   <g id="patch_4">
    <path d="M 203.294118 207.247059 
L 203.294118 75.952941 
" style="fill:none;stroke:#000000;stroke-linecap:square;stroke-linejoin:miter;stroke-width:0.8;"/>
   </g>
   <g id="patch_5">
    <path d="M 72 207.247059 
L 203.294118 207.247059 
" style="fill:none;stroke:#000000;stroke-linecap:square;stroke-linejoin:miter;stroke-width:0.8;"/>
   </g>
   <g id="patch_6">
    <path d="M 72 75.952941 
L 203.294118 75.952941 
" style="fill:none;stroke:#000000;stroke-linecap:square;stroke-linejoin:miter;stroke-width:0.8;"/>
   </g>
  </g>
  <g id="axes_2">
   <g id="patch_7">
    <path d="M 229.552941 207.247059 
L 360.847059 207.247059 
L 360.847059 75.952941 
L 229.552941 75.952941 
z
" style="fill:none;"/>
   </g>
   <g id="matplotlib.axis_3">
    <g id="xtick_5">
     <g id="line2d_11">
      <g>
       <use style="stroke:#000000;stroke-width:0.8;" x="255.811765" xlink:href="#m960a0f04ff" y="207.247059"/>
      </g>
     </g>
    </g>
    <g id="xtick_6">
     <g id="line2d_12">
      <g>
       <use style="stroke:#000000;stroke-width:0.8;" x="288.635294" xlink:href="#m960a0f04ff" y="207.247059"/>
      </g>
     </g>
    </g>
    <g id="xtick_7">
     <g id="line2d_13">
      <g>
       <use style="stroke:#000000;stroke-width:0.8;" x="321.458824" xlink:href="#m960a0f04ff" y="207.247059"/>
      </g>
     </g>
    </g>
    <g id="xtick_8">
     <g id="line2d_14">
      <g>
       <use style="stroke:#000000;stroke-width:0.8;" x="354.282353" xlink:href="#m960a0f04ff" y="207.247059"/>
      </g>
     </g>
    </g>
   </g>
   <g id="matplotlib.axis_4">
    <g id="ytick_6">
     <g id="line2d_15">
      <g>
       <use style="stroke:#000000;stroke-width:0.8;" x="229.552941" xlink:href="#m0fae194259" y="207.247059"/>
      </g>
     </g>
     <g id="text_6">
      <!-- 0 -->
      <g transform="translate(216.190441 211.046278)scale(0.1 -0.1)">
       <use xlink:href="#DejaVuSans-48"/>
      </g>
     </g>
    </g>
    <g id="ytick_7">
     <g id="line2d_16">
      <g>
       <use style="stroke:#000000;stroke-width:0.8;" x="229.552941" xlink:href="#m0fae194259" y="171.165363"/>
      </g>
     </g>
     <g id="text_7">
      <!-- 10 -->
      <g transform="translate(209.827941 174.964582)scale(0.1 -0.1)">
       <use xlink:href="#DejaVuSans-49"/>
       <use x="63.623047" xlink:href="#DejaVuSans-48"/>
      </g>
     </g>
    </g>
    <g id="ytick_8">
     <g id="line2d_17">
      <g>
       <use style="stroke:#000000;stroke-width:0.8;" x="229.552941" xlink:href="#m0fae194259" y="135.083668"/>
      </g>
     </g>
     <g id="text_8">
      <!-- 20 -->
      <g transform="translate(209.827941 138.882886)scale(0.1 -0.1)">
       <use xlink:href="#DejaVuSans-50"/>
       <use x="63.623047" xlink:href="#DejaVuSans-48"/>
      </g>
     </g>
    </g>
    <g id="ytick_9">
     <g id="line2d_18">
      <g>
       <use style="stroke:#000000;stroke-width:0.8;" x="229.552941" xlink:href="#m0fae194259" y="99.001972"/>
      </g>
     </g>
     <g id="text_9">
      <!-- 30 -->
      <defs>
       <path d="M 40.578125 39.3125 
Q 47.65625 37.796875 51.625 33 
Q 55.609375 28.21875 55.609375 21.1875 
Q 55.609375 10.40625 48.1875 4.484375 
Q 40.765625 -1.421875 27.09375 -1.421875 
Q 22.515625 -1.421875 17.65625 -0.515625 
Q 12.796875 0.390625 7.625 2.203125 
L 7.625 11.71875 
Q 11.71875 9.328125 16.59375 8.109375 
Q 21.484375 6.890625 26.8125 6.890625 
Q 36.078125 6.890625 40.9375 10.546875 
Q 45.796875 14.203125 45.796875 21.1875 
Q 45.796875 27.640625 41.28125 31.265625 
Q 36.765625 34.90625 28.71875 34.90625 
L 20.21875 34.90625 
L 20.21875 43.015625 
L 29.109375 43.015625 
Q 36.375 43.015625 40.234375 45.921875 
Q 44.09375 48.828125 44.09375 54.296875 
Q 44.09375 59.90625 40.109375 62.90625 
Q 36.140625 65.921875 28.71875 65.921875 
Q 24.65625 65.921875 20.015625 65.03125 
Q 15.375 64.15625 9.8125 62.3125 
L 9.8125 71.09375 
Q 15.4375 72.65625 20.34375 73.4375 
Q 25.25 74.21875 29.59375 74.21875 
Q 40.828125 74.21875 47.359375 69.109375 
Q 53.90625 64.015625 53.90625 55.328125 
Q 53.90625 49.265625 50.4375 45.09375 
Q 46.96875 40.921875 40.578125 39.3125 
z
" id="DejaVuSans-51"/>
      </defs>
      <g transform="translate(209.827941 102.801191)scale(0.1 -0.1)">
       <use xlink:href="#DejaVuSans-51"/>
       <use x="63.623047" xlink:href="#DejaVuSans-48"/>
      </g>
     </g>
    </g>
   </g>
   <g id="line2d_19">
    <path clip-path="url(#p94f3a4d798)" d="M 360.878569 207.221156 
L 350.513949 207.183532 
L 346.05205 207.015929 
L 344.285881 207.051523 
L 341.776063 207.139892 
L 338.290204 207.179413 
L 334.618433 207.246909 
L 332.201571 207.141819 
L 327.460803 206.702058 
L 326.345328 206.312468 
L 325.276331 205.697328 
L 323.696075 204.724883 
L 323.231294 204.755271 
L 322.720035 205.026929 
L 320.86091 206.232177 
L 320.11726 206.340632 
L 319.14122 206.227479 
L 318.072223 206.165613 
L 317.096183 206.372288 
L 315.376492 206.765788 
L 314.214539 206.755172 
L 312.494849 206.489251 
L 310.170943 206.111485 
L 308.637165 205.837067 
L 307.52169 205.397695 
L 306.499172 204.772535 
L 305.941434 204.174864 
L 305.430175 203.291761 
L 304.872438 201.858983 
L 304.268222 199.6149 
L 303.664007 196.452175 
L 302.780922 190.37136 
L 302.176707 186.819386 
L 301.85136 185.926922 
L 301.665448 185.835304 
L 301.479535 186.039927 
L 301.200666 186.823744 
L 300.735885 188.95862 
L 299.573932 194.48571 
L 299.062673 195.923924 
L 298.64437 196.555132 
L 298.272545 196.737384 
L 297.90072 196.638939 
L 297.017636 196.276851 
L 296.738767 196.463546 
L 296.41342 196.9756 
L 295.902161 198.308303 
L 294.647252 201.822226 
L 294.182471 202.49902 
L 293.810646 202.70821 
L 293.485299 202.655095 
L 293.113474 202.34122 
L 292.648693 201.617841 
L 291.858565 199.864371 
L 290.836046 197.711471 
L 290.417743 197.276493 
L 290.092396 197.236551 
L 289.767049 197.443684 
L 289.209312 198.150574 
L 288.27975 199.308471 
L 287.76849 199.594298 
L 287.303709 199.584096 
L 286.79245 199.321159 
L 285.955844 198.583458 
L 284.933325 197.464548 
L 284.5615 196.655975 
L 284.189675 195.297428 
L 283.771372 192.876884 
L 283.306591 188.79098 
L 282.795332 182.089426 
L 282.284072 172.330381 
L 281.679857 156.138321 
L 280.424948 120.217319 
L 280.099601 116.803064 
L 279.960167 116.461279 
L 279.913688 116.486453 
L 279.774254 116.942865 
L 279.541864 118.778758 
L 279.077082 124.87726 
L 278.14752 137.104487 
L 277.682739 140.594538 
L 277.357392 141.77647 
L 277.125001 142.006016 
L 276.939089 141.845233 
L 276.706698 141.262551 
L 276.288395 139.476573 
L 275.777136 137.494233 
L 275.591224 137.38491 
L 275.451789 137.677164 
L 275.265877 138.672877 
L 274.987008 141.621237 
L 274.568705 149.172809 
L 272.802536 186.056798 
L 272.337755 190.480871 
L 271.96593 192.336842 
L 271.687062 192.877251 
L 271.501149 192.877051 
L 271.315237 192.617543 
L 271.036368 191.803765 
L 270.571587 189.596776 
L 269.130765 182.044475 
L 268.851896 181.563601 
L 268.665984 181.56588 
L 268.480072 181.822159 
L 268.154725 182.787491 
L 267.504031 185.743263 
L 266.667425 189.205466 
L 266.109688 190.650219 
L 265.55195 191.4897 
L 263.785782 193.6268 
L 263.228044 194.294099 
L 262.995654 194.320215 
L 262.763263 194.103543 
L 262.484394 193.446068 
L 262.159048 192.025961 
L 261.787223 189.375786 
L 261.36892 184.778871 
L 260.904138 177.09823 
L 260.392879 164.733618 
L 259.695707 141.623723 
L 258.905579 117.265588 
L 258.533754 111.748464 
L 258.301364 110.626921 
L 258.208408 110.603539 
L 258.068973 110.936757 
L 257.790104 112.537899 
L 256.90702 118.367752 
L 256.67463 118.836704 
L 256.535195 118.806679 
L 256.349283 118.391192 
L 256.070414 116.958811 
L 255.698589 113.57423 
L 255.18733 106.461155 
L 253.978899 88.346211 
L 253.792986 87.893554 
L 253.70003 88.159956 
L 253.514118 89.791531 
L 253.235249 95.098034 
L 252.816946 108.657133 
L 251.190212 167.898431 
L 250.585996 180.180395 
L 249.981781 188.22993 
L 249.377565 193.533021 
L 248.726872 197.319856 
L 248.076178 199.860564 
L 247.379006 201.718747 
L 246.635356 203.078972 
L 245.845228 204.078682 
L 244.962144 204.851858 
L 243.893147 205.485029 
L 242.59176 205.987016 
L 240.87207 206.395281 
L 238.501686 206.712733 
L 234.876392 206.952499 
L 229.531409 207.101709 
L 229.531409 207.101709 
" style="fill:none;stroke:#1f77b4;stroke-linecap:square;stroke-width:1.5;"/>
   </g>
   <g id="patch_8">
    <path d="M 229.552941 207.247059 
L 229.552941 75.952941 
" style="fill:none;stroke:#000000;stroke-linecap:square;stroke-linejoin:miter;stroke-width:0.8;"/>
   </g>
   <g id="patch_9">
    <path d="M 360.847059 207.247059 
L 360.847059 75.952941 
" style="fill:none;stroke:#000000;stroke-linecap:square;stroke-linejoin:miter;stroke-width:0.8;"/>
   </g>
   <g id="patch_10">
    <path d="M 229.552941 207.247059 
L 360.847059 207.247059 
" style="fill:none;stroke:#000000;stroke-linecap:square;stroke-linejoin:miter;stroke-width:0.8;"/>
   </g>
   <g id="patch_11">
    <path d="M 229.552941 75.952941 
L 360.847059 75.952941 
" style="fill:none;stroke:#000000;stroke-linecap:square;stroke-linejoin:miter;stroke-width:0.8;"/>
   </g>
  </g>
  <g id="axes_3">
   <g id="patch_12">
    <path d="M 387.105882 207.247059 
L 518.4 207.247059 
L 518.4 75.952941 
L 387.105882 75.952941 
z
" style="fill:none;"/>
   </g>
   <g id="matplotlib.axis_5">
    <g id="xtick_9">
     <g id="line2d_20">
      <g>
       <use style="stroke:#000000;stroke-width:0.8;" x="413.364706" xlink:href="#m960a0f04ff" y="207.247059"/>
      </g>
     </g>
    </g>
    <g id="xtick_10">
     <g id="line2d_21">
      <g>
       <use style="stroke:#000000;stroke-width:0.8;" x="446.188235" xlink:href="#m960a0f04ff" y="207.247059"/>
      </g>
     </g>
    </g>
    <g id="xtick_11">
     <g id="line2d_22">
      <g>
       <use style="stroke:#000000;stroke-width:0.8;" x="479.011765" xlink:href="#m960a0f04ff" y="207.247059"/>
      </g>
     </g>
    </g>
    <g id="xtick_12">
     <g id="line2d_23">
      <g>
       <use style="stroke:#000000;stroke-width:0.8;" x="511.835294" xlink:href="#m960a0f04ff" y="207.247059"/>
      </g>
     </g>
    </g>
   </g>
   <g id="matplotlib.axis_6">
    <g id="ytick_10">
     <g id="line2d_24">
      <g>
       <use style="stroke:#000000;stroke-width:0.8;" x="387.105882" xlink:href="#m0fae194259" y="207.247059"/>
      </g>
     </g>
     <g id="text_10">
      <!-- 0 -->
      <g transform="translate(373.743382 211.046278)scale(0.1 -0.1)">
       <use xlink:href="#DejaVuSans-48"/>
      </g>
     </g>
    </g>
    <g id="ytick_11">
     <g id="line2d_25">
      <g>
       <use style="stroke:#000000;stroke-width:0.8;" x="387.105882" xlink:href="#m0fae194259" y="173.924551"/>
      </g>
     </g>
     <g id="text_11">
      <!-- 10 -->
      <g transform="translate(367.380882 177.72377)scale(0.1 -0.1)">
       <use xlink:href="#DejaVuSans-49"/>
       <use x="63.623047" xlink:href="#DejaVuSans-48"/>
      </g>
     </g>
    </g>
    <g id="ytick_12">
     <g id="line2d_26">
      <g>
       <use style="stroke:#000000;stroke-width:0.8;" x="387.105882" xlink:href="#m0fae194259" y="140.602044"/>
      </g>
     </g>
     <g id="text_12">
      <!-- 20 -->
      <g transform="translate(367.380882 144.401262)scale(0.1 -0.1)">
       <use xlink:href="#DejaVuSans-50"/>
       <use x="63.623047" xlink:href="#DejaVuSans-48"/>
      </g>
     </g>
    </g>
    <g id="ytick_13">
     <g id="line2d_27">
      <g>
       <use style="stroke:#000000;stroke-width:0.8;" x="387.105882" xlink:href="#m0fae194259" y="107.279536"/>
      </g>
     </g>
     <g id="text_13">
      <!-- 30 -->
      <g transform="translate(367.380882 111.078755)scale(0.1 -0.1)">
       <use xlink:href="#DejaVuSans-51"/>
       <use x="63.623047" xlink:href="#DejaVuSans-48"/>
      </g>
     </g>
    </g>
   </g>
   <g id="line2d_28">
    <path clip-path="url(#p06ae80b05c)" d="M 518.431511 207.171357 
L 513.365396 207.084794 
L 511.366837 206.923243 
L 509.182365 206.762865 
L 505.696506 206.821903 
L 503.604991 206.596665 
L 502.535994 206.760489 
L 500.816304 207.042819 
L 495.889624 207.176175 
L 491.241812 206.638492 
L 490.54464 206.19178 
L 489.615078 205.280695 
L 488.220734 203.909551 
L 487.755953 203.761656 
L 487.384128 203.865257 
L 486.919347 204.248389 
L 485.385569 205.717694 
L 484.920788 205.772421 
L 484.456007 205.575599 
L 483.898269 205.055081 
L 482.922229 203.746217 
L 482.178579 202.902617 
L 481.760276 202.705282 
L 481.388451 202.779628 
L 480.970148 203.135622 
L 480.226498 204.159507 
L 479.343414 205.244358 
L 478.739198 205.650456 
L 478.042026 205.835106 
L 475.950511 206.184466 
L 474.044908 206.909957 
L 473.068868 206.865658 
L 470.698484 206.513397 
L 470.280181 206.141903 
L 469.908356 205.51195 
L 469.490053 204.3422 
L 468.978793 202.184742 
L 468.281622 198.139115 
L 467.212625 190.364114 
L 466.515453 185.894771 
L 466.190106 184.853374 
L 466.004194 184.712217 
L 465.86476 184.838425 
L 465.632369 185.475078 
L 465.260544 187.416984 
L 464.330982 194.194663 
L 463.726766 197.616884 
L 463.308463 198.849552 
L 463.029594 199.073384 
L 462.843682 198.952982 
L 462.611291 198.505737 
L 462.285944 197.35278 
L 461.821163 194.764195 
L 461.077513 189.08606 
L 460.194429 182.682433 
L 459.822604 181.342897 
L 459.590214 181.11717 
L 459.404301 181.266527 
L 459.125432 181.962732 
L 458.660651 183.967931 
L 457.638133 188.560921 
L 457.21983 189.522712 
L 456.894483 189.801028 
L 456.615614 189.745362 
L 456.290267 189.392789 
L 455.825486 188.488116 
L 454.710011 186.13375 
L 454.477621 186.065034 
L 454.291708 186.231814 
L 454.059318 186.762216 
L 453.733971 188.124076 
L 453.222712 191.393419 
L 451.967802 199.668759 
L 451.363587 202.143022 
L 450.805849 203.56272 
L 450.341068 204.220451 
L 449.969243 204.413963 
L 449.690375 204.335804 
L 449.411506 204.016522 
L 449.086159 203.243089 
L 448.714334 201.646707 
L 448.296031 198.668057 
L 447.784772 193.071776 
L 447.134078 183.020689 
L 446.390428 167.887128 
L 445.228475 138.332119 
L 444.717216 128.752305 
L 444.438347 126.623993 
L 444.345391 126.497251 
L 444.298913 126.543846 
L 444.159479 127.111679 
L 443.927088 129.372136 
L 443.555263 135.628547 
L 441.742616 170.474398 
L 441.324313 173.804894 
L 441.045445 174.659015 
L 440.90601 174.675745 
L 440.766576 174.42184 
L 440.534185 173.409244 
L 440.208839 170.811563 
L 439.744057 164.991044 
L 438.953929 151.48779 
L 438.256758 141.045724 
L 437.884933 138.168561 
L 437.606064 137.420472 
L 437.46663 137.438244 
L 437.280717 137.78294 
L 436.908892 139.144105 
L 436.351155 141.027559 
L 436.165242 141.18336 
L 436.025808 141.066579 
L 435.839896 140.564307 
L 435.561027 139.021855 
L 435.189202 135.475854 
L 434.677943 128.008321 
L 433.980771 114.00956 
L 433.051208 95.701669 
L 432.77234 93.450991 
L 432.679384 93.322801 
L 432.632905 93.388943 
L 432.493471 94.131311 
L 432.26108 97.218214 
L 431.935734 105.128679 
L 431.331518 126.639495 
L 430.355478 160.329867 
L 429.704784 175.475985 
L 429.100568 184.559179 
L 428.589309 189.196954 
L 428.217484 191.002085 
L 427.938616 191.503183 
L 427.799181 191.47457 
L 427.613269 191.14206 
L 427.3344 190.011431 
L 426.962575 187.383435 
L 426.404838 181.591921 
L 425.242885 166.703844 
L 424.452757 154.043221 
L 423.290804 134.767228 
L 423.011935 132.967686 
L 422.872501 132.786598 
L 422.733066 133.084549 
L 422.500676 134.553308 
L 422.128851 138.819912 
L 420.362682 161.937537 
L 419.804945 165.904515 
L 419.293686 168.103988 
L 418.875383 169.03384 
L 418.550036 169.301766 
L 418.271167 169.264015 
L 417.94582 168.963988 
L 417.434561 168.105195 
L 416.365564 166.228094 
L 416.040217 166.042022 
L 415.714871 166.108529 
L 415.110655 166.314914 
L 414.924743 166.13745 
L 414.692352 165.573019 
L 414.413483 164.241252 
L 414.041658 161.121486 
L 413.623355 155.531813 
L 413.112096 145.436204 
L 412.50788 128.782101 
L 411.160015 89.565808 
L 410.927624 87.88877 
L 410.881146 87.889504 
L 410.78819 88.237136 
L 410.602278 90.296039 
L 410.323409 96.45915 
L 409.81215 113.990808 
L 408.696675 152.975659 
L 408.045981 168.303578 
L 407.395288 178.791158 
L 406.744594 185.953821 
L 406.047422 191.224357 
L 405.35025 194.888522 
L 404.6066 197.652693 
L 403.816472 199.744276 
L 402.979866 201.335392 
L 402.096782 202.553837 
L 401.120742 203.533673 
L 400.005267 204.340789 
L 398.70388 205.007714 
L 397.077145 205.579262 
L 395.032108 206.049529 
L 392.289899 206.43725 
L 388.385737 206.745787 
L 387.08435 206.813081 
L 387.08435 206.813081 
" style="fill:none;stroke:#1f77b4;stroke-linecap:square;stroke-width:1.5;"/>
   </g>
   <g id="patch_13">
    <path d="M 387.105882 207.247059 
L 387.105882 75.952941 
" style="fill:none;stroke:#000000;stroke-linecap:square;stroke-linejoin:miter;stroke-width:0.8;"/>
   </g>
   <g id="patch_14">
    <path d="M 518.4 207.247059 
L 518.4 75.952941 
" style="fill:none;stroke:#000000;stroke-linecap:square;stroke-linejoin:miter;stroke-width:0.8;"/>
   </g>
   <g id="patch_15">
    <path d="M 387.105882 207.247059 
L 518.4 207.247059 
" style="fill:none;stroke:#000000;stroke-linecap:square;stroke-linejoin:miter;stroke-width:0.8;"/>
   </g>
   <g id="patch_16">
    <path d="M 387.105882 75.952941 
L 518.4 75.952941 
" style="fill:none;stroke:#000000;stroke-linecap:square;stroke-linejoin:miter;stroke-width:0.8;"/>
   </g>
  </g>
  <g id="axes_4">
   <g id="patch_17">
    <path d="M 72 352.207059 
L 203.294118 352.207059 
L 203.294118 220.912941 
L 72 220.912941 
z
" style="fill:none;"/>
   </g>
   <g id="matplotlib.axis_7">
    <g id="xtick_13">
     <g id="line2d_29">
      <g>
       <use style="stroke:#000000;stroke-width:0.8;" x="98.258824" xlink:href="#m960a0f04ff" y="352.207059"/>
      </g>
     </g>
    </g>
    <g id="xtick_14">
     <g id="line2d_30">
      <g>
       <use style="stroke:#000000;stroke-width:0.8;" x="131.082353" xlink:href="#m960a0f04ff" y="352.207059"/>
      </g>
     </g>
    </g>
    <g id="xtick_15">
     <g id="line2d_31">
      <g>
       <use style="stroke:#000000;stroke-width:0.8;" x="163.905882" xlink:href="#m960a0f04ff" y="352.207059"/>
      </g>
     </g>
    </g>
    <g id="xtick_16">
     <g id="line2d_32">
      <g>
       <use style="stroke:#000000;stroke-width:0.8;" x="196.729412" xlink:href="#m960a0f04ff" y="352.207059"/>
      </g>
     </g>
    </g>
   </g>
   <g id="matplotlib.axis_8">
    <g id="ytick_14">
     <g id="line2d_33">
      <g>
       <use style="stroke:#000000;stroke-width:0.8;" x="72" xlink:href="#m0fae194259" y="352.207059"/>
      </g>
     </g>
     <g id="text_14">
      <!-- 0 -->
      <g transform="translate(58.6375 356.006278)scale(0.1 -0.1)">
       <use xlink:href="#DejaVuSans-48"/>
      </g>
     </g>
    </g>
    <g id="ytick_15">
     <g id="line2d_34">
      <g>
       <use style="stroke:#000000;stroke-width:0.8;" x="72" xlink:href="#m0fae194259" y="326.594624"/>
      </g>
     </g>
     <g id="text_15">
      <!-- 100 -->
      <g transform="translate(45.9125 330.393843)scale(0.1 -0.1)">
       <use xlink:href="#DejaVuSans-49"/>
       <use x="63.623047" xlink:href="#DejaVuSans-48"/>
       <use x="127.246094" xlink:href="#DejaVuSans-48"/>
      </g>
     </g>
    </g>
    <g id="ytick_16">
     <g id="line2d_35">
      <g>
       <use style="stroke:#000000;stroke-width:0.8;" x="72" xlink:href="#m0fae194259" y="300.982189"/>
      </g>
     </g>
     <g id="text_16">
      <!-- 200 -->
      <g transform="translate(45.9125 304.781408)scale(0.1 -0.1)">
       <use xlink:href="#DejaVuSans-50"/>
       <use x="63.623047" xlink:href="#DejaVuSans-48"/>
       <use x="127.246094" xlink:href="#DejaVuSans-48"/>
      </g>
     </g>
    </g>
    <g id="ytick_17">
     <g id="line2d_36">
      <g>
       <use style="stroke:#000000;stroke-width:0.8;" x="72" xlink:href="#m0fae194259" y="275.369755"/>
      </g>
     </g>
     <g id="text_17">
      <!-- 300 -->
      <g transform="translate(45.9125 279.168973)scale(0.1 -0.1)">
       <use xlink:href="#DejaVuSans-51"/>
       <use x="63.623047" xlink:href="#DejaVuSans-48"/>
       <use x="127.246094" xlink:href="#DejaVuSans-48"/>
      </g>
     </g>
    </g>
    <g id="ytick_18">
     <g id="line2d_37">
      <g>
       <use style="stroke:#000000;stroke-width:0.8;" x="72" xlink:href="#m0fae194259" y="249.75732"/>
      </g>
     </g>
     <g id="text_18">
      <!-- 400 -->
      <defs>
       <path d="M 37.796875 64.3125 
L 12.890625 25.390625 
L 37.796875 25.390625 
z
M 35.203125 72.90625 
L 47.609375 72.90625 
L 47.609375 25.390625 
L 58.015625 25.390625 
L 58.015625 17.1875 
L 47.609375 17.1875 
L 47.609375 0 
L 37.796875 0 
L 37.796875 17.1875 
L 4.890625 17.1875 
L 4.890625 26.703125 
z
" id="DejaVuSans-52"/>
      </defs>
      <g transform="translate(45.9125 253.556539)scale(0.1 -0.1)">
       <use xlink:href="#DejaVuSans-52"/>
       <use x="63.623047" xlink:href="#DejaVuSans-48"/>
       <use x="127.246094" xlink:href="#DejaVuSans-48"/>
      </g>
     </g>
    </g>
    <g id="ytick_19">
     <g id="line2d_38">
      <g>
       <use style="stroke:#000000;stroke-width:0.8;" x="72" xlink:href="#m0fae194259" y="224.144885"/>
      </g>
     </g>
     <g id="text_19">
      <!-- 500 -->
      <g transform="translate(45.9125 227.944104)scale(0.1 -0.1)">
       <use xlink:href="#DejaVuSans-53"/>
       <use x="63.623047" xlink:href="#DejaVuSans-48"/>
       <use x="127.246094" xlink:href="#DejaVuSans-48"/>
      </g>
     </g>
    </g>
   </g>
   <g id="line2d_39">
    <path clip-path="url(#p0ee18e0c20)" d="M 203.325628 352.009599 
L 195.331392 351.769212 
L 193.844092 351.665103 
L 191.659621 351.481908 
L 190.404712 351.689924 
L 188.96389 351.852893 
L 181.992172 351.898134 
L 180.551351 351.506909 
L 177.948576 350.681987 
L 176.972536 349.994872 
L 176.089451 349.441126 
L 175.62467 349.395263 
L 175.113411 349.573198 
L 173.39372 350.384481 
L 172.835983 350.30421 
L 172.278246 349.984308 
L 171.534596 349.260145 
L 170.419121 348.18924 
L 170.000818 348.071833 
L 169.628993 348.184099 
L 169.164212 348.573772 
L 167.258609 350.467174 
L 166.514959 350.754874 
L 165.445962 350.892068 
L 163.77275 351.111775 
L 162.703753 351.53554 
L 161.123497 352.149457 
L 160.519282 352.144632 
L 160.008023 351.893921 
L 159.357329 351.273877 
L 157.312292 348.858194 
L 156.754554 347.755255 
L 156.196817 346.115 
L 155.592601 343.578918 
L 154.477127 338.661154 
L 154.15178 338.123829 
L 153.965867 338.10752 
L 153.733477 338.364983 
L 153.40813 339.142839 
L 152.710958 341.602346 
L 151.967308 343.912267 
L 151.549005 344.604585 
L 151.270136 344.736187 
L 151.037746 344.619593 
L 150.758877 344.191491 
L 150.387052 343.126851 
L 149.875793 340.83919 
L 148.249059 332.703172 
L 147.97019 332.392974 
L 147.784278 332.457579 
L 147.551887 332.802168 
L 147.133584 333.951655 
L 145.274459 339.782475 
L 144.484331 341.209417 
L 143.508291 342.526983 
L 142.904075 343.03345 
L 142.439294 343.150699 
L 141.835079 343.037909 
L 140.580169 342.498517 
L 139.83652 342.287102 
L 139.464695 342.389607 
L 139.09287 342.746774 
L 138.674567 343.489965 
L 137.233745 346.376564 
L 136.908398 346.534288 
L 136.629529 346.460184 
L 136.304183 346.117847 
L 135.932358 345.356709 
L 135.514055 343.935914 
L 135.049273 341.432582 
L 134.584492 337.599345 
L 134.026755 330.846932 
L 132.725368 313.665399 
L 132.446499 312.49247 
L 132.307064 312.40598 
L 132.16763 312.62687 
L 131.93524 313.585514 
L 131.516936 316.633067 
L 129.843724 330.299503 
L 129.471899 331.640791 
L 129.239509 331.949855 
L 129.053596 331.873912 
L 128.821206 331.35691 
L 128.495859 329.841986 
L 128.077556 326.627444 
L 127.426862 319.541388 
L 126.543778 310.330772 
L 126.125475 308.023836 
L 125.800128 307.21114 
L 125.521259 306.998183 
L 125.242391 307.052112 
L 123.801569 307.6913 
L 123.197353 307.825957 
L 122.872007 308.138354 
L 122.500182 308.838807 
L 121.988922 310.367769 
L 121.338229 312.213467 
L 121.105838 312.424461 
L 120.919926 312.312307 
L 120.687535 311.769577 
L 120.362188 310.203618 
L 119.943885 306.784555 
L 119.432626 300.541855 
L 118.688976 288.185914 
L 117.898848 275.53813 
L 117.573501 273.313872 
L 117.480545 273.240804 
L 117.387589 273.449179 
L 117.201676 274.737762 
L 116.922808 278.778136 
L 116.458026 289.723081 
L 115.296073 318.534804 
L 114.738336 326.913242 
L 114.227077 331.647437 
L 113.762296 334.061585 
L 113.436949 334.854613 
L 113.204558 335.01006 
L 113.018646 334.902635 
L 112.739777 334.385349 
L 112.321474 332.95371 
L 111.252477 328.892375 
L 110.973608 328.599767 
L 110.787696 328.658856 
L 110.508827 329.075421 
L 110.044046 330.34569 
L 108.417312 335.2046 
L 107.72014 336.552914 
L 107.208881 337.130655 
L 106.7441 337.335657 
L 106.279319 337.275841 
L 105.768059 336.960761 
L 105.210322 336.353066 
L 104.606106 335.341928 
L 104.001891 333.847482 
L 103.351197 331.604877 
L 102.514591 327.838654 
L 101.073769 321.260991 
L 100.56251 319.981837 
L 99.725904 318.340438 
L 99.400557 316.875163 
L 99.028732 313.994451 
L 98.610429 308.824582 
L 98.09917 299.266494 
L 97.541432 284.34773 
L 96.658348 253.392238 
L 96.100611 237.00886 
L 95.821742 233.22606 
L 95.682308 232.84877 
L 95.589352 233.184394 
L 95.403439 235.225568 
L 95.12457 241.308123 
L 94.613311 258.373746 
L 93.497836 296.044832 
L 92.800664 311.948278 
L 92.149971 322.141022 
L 91.452799 329.658805 
L 90.755627 334.865575 
L 90.011977 338.771915 
L 89.268328 341.564686 
L 88.4782 343.72463 
L 87.641593 345.402576 
L 86.712031 346.772378 
L 85.689512 347.874848 
L 84.574038 348.754071 
L 83.27265 349.496836 
L 81.692394 350.132867 
L 79.740313 350.667203 
L 77.230495 351.112668 
L 73.837592 351.477245 
L 71.978468 351.609767 
L 71.978468 351.609767 
" style="fill:none;stroke:#1f77b4;stroke-linecap:square;stroke-width:1.5;"/>
   </g>
   <g id="patch_18">
    <path d="M 72 352.207059 
L 72 220.912941 
" style="fill:none;stroke:#000000;stroke-linecap:square;stroke-linejoin:miter;stroke-width:0.8;"/>
   </g>
   <g id="patch_19">
    <path d="M 203.294118 352.207059 
L 203.294118 220.912941 
" style="fill:none;stroke:#000000;stroke-linecap:square;stroke-linejoin:miter;stroke-width:0.8;"/>
   </g>
   <g id="patch_20">
    <path d="M 72 352.207059 
L 203.294118 352.207059 
" style="fill:none;stroke:#000000;stroke-linecap:square;stroke-linejoin:miter;stroke-width:0.8;"/>
   </g>
   <g id="patch_21">
    <path d="M 72 220.912941 
L 203.294118 220.912941 
" style="fill:none;stroke:#000000;stroke-linecap:square;stroke-linejoin:miter;stroke-width:0.8;"/>
   </g>
  </g>
  <g id="axes_5">
   <g id="patch_22">
    <path d="M 229.552941 352.207059 
L 360.847059 352.207059 
L 360.847059 220.912941 
L 229.552941 220.912941 
z
" style="fill:none;"/>
   </g>
   <g id="matplotlib.axis_9">
    <g id="xtick_17">
     <g id="line2d_40">
      <g>
       <use style="stroke:#000000;stroke-width:0.8;" x="255.811765" xlink:href="#m960a0f04ff" y="352.207059"/>
      </g>
     </g>
    </g>
    <g id="xtick_18">
     <g id="line2d_41">
      <g>
       <use style="stroke:#000000;stroke-width:0.8;" x="288.635294" xlink:href="#m960a0f04ff" y="352.207059"/>
      </g>
     </g>
    </g>
    <g id="xtick_19">
     <g id="line2d_42">
      <g>
       <use style="stroke:#000000;stroke-width:0.8;" x="321.458824" xlink:href="#m960a0f04ff" y="352.207059"/>
      </g>
     </g>
    </g>
    <g id="xtick_20">
     <g id="line2d_43">
      <g>
       <use style="stroke:#000000;stroke-width:0.8;" x="354.282353" xlink:href="#m960a0f04ff" y="352.207059"/>
      </g>
     </g>
    </g>
   </g>
   <g id="matplotlib.axis_10">
    <g id="ytick_20">
     <g id="line2d_44">
      <g>
       <use style="stroke:#000000;stroke-width:0.8;" x="229.552941" xlink:href="#m0fae194259" y="352.207059"/>
      </g>
     </g>
     <g id="text_20">
      <!-- 0 -->
      <g transform="translate(216.190441 356.006278)scale(0.1 -0.1)">
       <use xlink:href="#DejaVuSans-48"/>
      </g>
     </g>
    </g>
    <g id="ytick_21">
     <g id="line2d_45">
      <g>
       <use style="stroke:#000000;stroke-width:0.8;" x="229.552941" xlink:href="#m0fae194259" y="315.858803"/>
      </g>
     </g>
     <g id="text_21">
      <!-- 50 -->
      <g transform="translate(209.827941 319.658022)scale(0.1 -0.1)">
       <use xlink:href="#DejaVuSans-53"/>
       <use x="63.623047" xlink:href="#DejaVuSans-48"/>
      </g>
     </g>
    </g>
    <g id="ytick_22">
     <g id="line2d_46">
      <g>
       <use style="stroke:#000000;stroke-width:0.8;" x="229.552941" xlink:href="#m0fae194259" y="279.510547"/>
      </g>
     </g>
     <g id="text_22">
      <!-- 100 -->
      <g transform="translate(203.465441 283.309766)scale(0.1 -0.1)">
       <use xlink:href="#DejaVuSans-49"/>
       <use x="63.623047" xlink:href="#DejaVuSans-48"/>
       <use x="127.246094" xlink:href="#DejaVuSans-48"/>
      </g>
     </g>
    </g>
    <g id="ytick_23">
     <g id="line2d_47">
      <g>
       <use style="stroke:#000000;stroke-width:0.8;" x="229.552941" xlink:href="#m0fae194259" y="243.162292"/>
      </g>
     </g>
     <g id="text_23">
      <!-- 150 -->
      <g transform="translate(203.465441 246.96151)scale(0.1 -0.1)">
       <use xlink:href="#DejaVuSans-49"/>
       <use x="63.623047" xlink:href="#DejaVuSans-53"/>
       <use x="127.246094" xlink:href="#DejaVuSans-48"/>
      </g>
     </g>
    </g>
   </g>
   <g id="line2d_48">
    <path clip-path="url(#p661033b444)" d="M 360.878569 351.946313 
L 357.996926 351.741494 
L 356.091323 351.658082 
L 353.535027 351.726969 
L 350.281559 351.463352 
L 347.53935 351.807291 
L 344.471794 351.771047 
L 342.3338 351.88275 
L 339.452157 351.643332 
L 338.429639 351.353996 
L 337.453598 350.845926 
L 336.291645 349.972947 
L 335.222648 349.231762 
L 334.757867 349.187174 
L 334.339564 349.38286 
L 333.642392 350.026445 
L 332.945221 350.560177 
L 332.433961 350.667823 
L 331.922702 350.521676 
L 331.318487 350.078703 
L 330.435402 349.093062 
L 329.50584 348.129192 
L 329.041059 347.940351 
L 328.669234 348.02903 
L 328.250931 348.390213 
L 327.367847 349.58525 
L 326.670675 350.328087 
L 326.066459 350.654084 
L 325.369288 350.757409 
L 323.045382 350.879179 
L 322.022863 351.348045 
L 320.953866 351.75957 
L 319.606001 351.984315 
L 318.258136 352.059836 
L 317.793354 351.858475 
L 317.328573 351.392113 
L 316.817314 350.522543 
L 316.213098 349.012518 
L 315.515927 346.618083 
L 314.772277 343.238215 
L 313.517368 337.286659 
L 313.238499 336.823299 
L 313.052586 336.864541 
L 312.866674 337.199739 
L 312.587805 338.206053 
L 312.030068 341.336822 
L 311.286418 345.222206 
L 310.868115 346.400831 
L 310.542768 346.744228 
L 310.310377 346.700961 
L 310.031509 346.35348 
L 309.659684 345.42222 
L 309.194903 343.575 
L 308.497731 339.744037 
L 307.475212 334.217087 
L 307.103387 333.307019 
L 306.917475 333.22561 
L 306.731562 333.398028 
L 306.452694 334.078701 
L 305.987912 335.964445 
L 304.918916 340.446084 
L 304.361178 341.834721 
L 303.849919 342.559573 
L 303.245704 343.010929 
L 301.479535 344.041921 
L 300.87532 344.838444 
L 299.480976 346.820773 
L 298.87676 347.226138 
L 298.226067 347.383858 
L 296.41342 347.659737 
L 295.995117 347.62678 
L 295.66977 347.368985 
L 295.344424 346.801826 
L 294.972599 345.680334 
L 294.507817 343.44791 
L 293.996558 339.740882 
L 293.438821 333.880823 
L 292.788127 324.4434 
L 291.812087 310.250553 
L 291.533218 308.702755 
L 291.440262 308.611433 
L 291.393784 308.649005 
L 291.254349 309.092504 
L 291.021959 310.869827 
L 290.650134 315.802864 
L 289.395224 333.984653 
L 288.930443 337.260186 
L 288.558618 338.452051 
L 288.326228 338.623814 
L 288.140315 338.462384 
L 287.907925 337.897204 
L 287.582578 336.442462 
L 287.164275 333.489828 
L 286.560059 327.446314 
L 285.444584 316.006924 
L 285.07276 314.352358 
L 284.840369 314.067085 
L 284.654456 314.181428 
L 284.375588 314.756443 
L 283.0742 318.040582 
L 282.748854 318.233257 
L 282.423507 318.166055 
L 281.958726 317.797816 
L 281.12212 317.132121 
L 280.750295 317.090555 
L 280.424948 317.273015 
L 280.053123 317.793576 
L 279.588342 318.917843 
L 278.751736 321.048626 
L 278.472867 321.22407 
L 278.286954 321.08055 
L 278.054564 320.571425 
L 277.729217 319.204471 
L 277.310914 316.290253 
L 276.799655 310.972229 
L 276.056005 300.438973 
L 275.312355 290.659174 
L 275.033486 289.018605 
L 274.894052 288.867879 
L 274.754617 289.202602 
L 274.522227 290.828018 
L 274.19688 295.045894 
L 273.499708 307.943848 
L 272.663102 321.847364 
L 272.105365 327.721025 
L 271.687062 330.239492 
L 271.361715 331.162308 
L 271.129324 331.326798 
L 270.943412 331.208497 
L 270.618065 330.629545 
L 270.013849 329.528162 
L 269.827937 329.534498 
L 269.642024 329.809288 
L 269.363156 330.749382 
L 268.944853 333.112423 
L 267.875856 339.485551 
L 267.364597 341.112293 
L 266.899816 341.888405 
L 266.388556 342.294979 
L 265.737863 342.509749 
L 265.087169 342.523608 
L 264.57591 342.328186 
L 264.018172 341.868267 
L 263.321 340.977282 
L 262.530872 339.584463 
L 261.833701 337.891154 
L 261.136529 335.555123 
L 260.346401 332.043961 
L 258.347842 322.585974 
L 257.790104 321.344158 
L 257.325323 320.248697 
L 256.999976 318.856924 
L 256.628152 316.146695 
L 256.209848 311.238891 
L 255.745067 303.039689 
L 255.18733 288.881226 
L 254.44368 263.256697 
L 253.653552 237.60702 
L 253.328205 233.11776 
L 253.235249 232.84877 
L 253.188771 232.891402 
L 253.049336 233.721008 
L 252.816946 237.300871 
L 252.445121 247.50491 
L 250.585996 306.107172 
L 249.888824 318.550127 
L 249.191653 327.018435 
L 248.494481 332.874388 
L 247.750831 337.255459 
L 247.007181 340.378385 
L 246.217053 342.787308 
L 245.380447 344.65448 
L 244.497363 346.110554 
L 243.521322 347.302717 
L 242.452326 348.267245 
L 241.197416 349.094232 
L 239.756595 349.775268 
L 237.990426 350.359308 
L 235.759477 350.854215 
L 232.831355 351.265973 
L 229.531409 351.551142 
L 229.531409 351.551142 
" style="fill:none;stroke:#1f77b4;stroke-linecap:square;stroke-width:1.5;"/>
   </g>
   <g id="patch_23">
    <path d="M 229.552941 352.207059 
L 229.552941 220.912941 
" style="fill:none;stroke:#000000;stroke-linecap:square;stroke-linejoin:miter;stroke-width:0.8;"/>
   </g>
   <g id="patch_24">
    <path d="M 360.847059 352.207059 
L 360.847059 220.912941 
" style="fill:none;stroke:#000000;stroke-linecap:square;stroke-linejoin:miter;stroke-width:0.8;"/>
   </g>
   <g id="patch_25">
    <path d="M 229.552941 352.207059 
L 360.847059 352.207059 
" style="fill:none;stroke:#000000;stroke-linecap:square;stroke-linejoin:miter;stroke-width:0.8;"/>
   </g>
   <g id="patch_26">
    <path d="M 229.552941 220.912941 
L 360.847059 220.912941 
" style="fill:none;stroke:#000000;stroke-linecap:square;stroke-linejoin:miter;stroke-width:0.8;"/>
   </g>
  </g>
  <g id="axes_6">
   <g id="patch_27">
    <path d="M 387.105882 352.207059 
L 518.4 352.207059 
L 518.4 220.912941 
L 387.105882 220.912941 
z
" style="fill:none;"/>
   </g>
   <g id="matplotlib.axis_11">
    <g id="xtick_21">
     <g id="line2d_49">
      <g>
       <use style="stroke:#000000;stroke-width:0.8;" x="413.364706" xlink:href="#m960a0f04ff" y="352.207059"/>
      </g>
     </g>
    </g>
    <g id="xtick_22">
     <g id="line2d_50">
      <g>
       <use style="stroke:#000000;stroke-width:0.8;" x="446.188235" xlink:href="#m960a0f04ff" y="352.207059"/>
      </g>
     </g>
    </g>
    <g id="xtick_23">
     <g id="line2d_51">
      <g>
       <use style="stroke:#000000;stroke-width:0.8;" x="479.011765" xlink:href="#m960a0f04ff" y="352.207059"/>
      </g>
     </g>
    </g>
    <g id="xtick_24">
     <g id="line2d_52">
      <g>
       <use style="stroke:#000000;stroke-width:0.8;" x="511.835294" xlink:href="#m960a0f04ff" y="352.207059"/>
      </g>
     </g>
    </g>
   </g>
   <g id="matplotlib.axis_12">
    <g id="ytick_24">
     <g id="line2d_53">
      <g>
       <use style="stroke:#000000;stroke-width:0.8;" x="387.105882" xlink:href="#m0fae194259" y="352.207059"/>
      </g>
     </g>
     <g id="text_24">
      <!-- 0.0 -->
      <defs>
       <path d="M 10.6875 12.40625 
L 21 12.40625 
L 21 0 
L 10.6875 0 
z
" id="DejaVuSans-46"/>
      </defs>
      <g transform="translate(364.202757 356.006278)scale(0.1 -0.1)">
       <use xlink:href="#DejaVuSans-48"/>
       <use x="63.623047" xlink:href="#DejaVuSans-46"/>
       <use x="95.410156" xlink:href="#DejaVuSans-48"/>
      </g>
     </g>
    </g>
    <g id="ytick_25">
     <g id="line2d_54">
      <g>
       <use style="stroke:#000000;stroke-width:0.8;" x="387.105882" xlink:href="#m0fae194259" y="309.487325"/>
      </g>
     </g>
     <g id="text_25">
      <!-- 0.1 -->
      <g transform="translate(364.202757 313.286544)scale(0.1 -0.1)">
       <use xlink:href="#DejaVuSans-48"/>
       <use x="63.623047" xlink:href="#DejaVuSans-46"/>
       <use x="95.410156" xlink:href="#DejaVuSans-49"/>
      </g>
     </g>
    </g>
    <g id="ytick_26">
     <g id="line2d_55">
      <g>
       <use style="stroke:#000000;stroke-width:0.8;" x="387.105882" xlink:href="#m0fae194259" y="266.767591"/>
      </g>
     </g>
     <g id="text_26">
      <!-- 0.2 -->
      <g transform="translate(364.202757 270.56681)scale(0.1 -0.1)">
       <use xlink:href="#DejaVuSans-48"/>
       <use x="63.623047" xlink:href="#DejaVuSans-46"/>
       <use x="95.410156" xlink:href="#DejaVuSans-50"/>
      </g>
     </g>
    </g>
    <g id="ytick_27">
     <g id="line2d_56">
      <g>
       <use style="stroke:#000000;stroke-width:0.8;" x="387.105882" xlink:href="#m0fae194259" y="224.047857"/>
      </g>
     </g>
     <g id="text_27">
      <!-- 0.3 -->
      <g transform="translate(364.202757 227.847076)scale(0.1 -0.1)">
       <use xlink:href="#DejaVuSans-48"/>
       <use x="63.623047" xlink:href="#DejaVuSans-46"/>
       <use x="95.410156" xlink:href="#DejaVuSans-51"/>
      </g>
     </g>
    </g>
   </g>
   <g id="line2d_57">
    <path clip-path="url(#p6e31bd3e27)" d="M 518.431511 351.940046 
L 515.73578 351.740527 
L 513.830177 351.647261 
L 511.134446 351.717484 
L 508.113368 351.434253 
L 504.813422 351.778343 
L 502.582472 351.724008 
L 499.514917 351.839125 
L 496.493839 351.502699 
L 495.564277 351.108289 
L 494.541758 350.408156 
L 492.77559 349.127243 
L 492.357287 349.147503 
L 491.938984 349.398454 
L 490.265771 350.707509 
L 489.80099 350.648355 
L 489.289731 350.349358 
L 488.592559 349.650699 
L 487.058781 348.008259 
L 486.640478 347.905232 
L 486.268653 348.054258 
L 485.803872 348.535752 
L 484.223616 350.456993 
L 483.6194 350.7194 
L 482.875751 350.765859 
L 481.016626 350.773805 
L 480.226498 351.072435 
L 478.599764 351.765895 
L 477.344855 351.933401 
L 475.71812 352.003895 
L 475.253339 351.752552 
L 474.835036 351.264138 
L 474.323777 350.276596 
L 473.719561 348.55922 
L 473.02239 345.849924 
L 472.185784 341.59525 
L 471.256221 337.034586 
L 470.930874 336.393356 
L 470.744962 336.420114 
L 470.559049 336.752362 
L 470.280181 337.781111 
L 469.768921 340.76892 
L 468.932315 345.49601 
L 468.514012 346.7143 
L 468.235144 347.022692 
L 468.002753 346.991747 
L 467.770362 346.718308 
L 467.445016 345.959823 
L 466.980234 344.1937 
L 466.329541 340.678532 
L 465.12111 334.047652 
L 464.795763 333.289472 
L 464.60985 333.206127 
L 464.423938 333.380924 
L 464.145069 334.075205 
L 463.680288 336.015791 
L 462.564813 340.831794 
L 462.007076 342.197089 
L 461.495816 342.877038 
L 460.938079 343.246345 
L 459.125432 344.164181 
L 458.567695 344.904646 
L 456.940961 347.322174 
L 456.383224 347.667035 
L 455.73253 347.801702 
L 453.548058 347.844044 
L 453.222712 347.475172 
L 452.897365 346.75689 
L 452.479062 345.193523 
L 452.01428 342.467873 
L 451.503021 338.054781 
L 450.945284 331.23558 
L 450.155156 318.345319 
L 449.504462 309.007064 
L 449.225593 307.269157 
L 449.086159 307.139694 
L 448.946725 307.526532 
L 448.714334 309.265706 
L 448.342509 314.330864 
L 446.994644 335.130029 
L 446.576341 338.134699 
L 446.250994 339.240914 
L 446.018603 339.448181 
L 445.832691 339.290355 
L 445.6003 338.707901 
L 445.274953 337.205507 
L 444.810172 333.776549 
L 444.159479 326.989008 
L 443.183438 316.815584 
L 442.811613 314.938584 
L 442.579223 314.539762 
L 442.39331 314.59316 
L 442.16092 315.017861 
L 441.696138 316.504027 
L 440.998967 318.579621 
L 440.580664 319.17055 
L 440.255317 319.26953 
L 439.883492 319.09783 
L 438.349714 318.029403 
L 438.024367 318.164747 
L 437.69902 318.545468 
L 437.280717 319.432396 
L 436.165242 322.152721 
L 435.932852 322.182118 
L 435.746939 321.960783 
L 435.468071 321.181866 
L 435.096246 319.264983 
L 434.631464 315.421989 
L 434.073727 308.755375 
L 432.679384 290.599559 
L 432.446993 289.946936 
L 432.354037 290.054861 
L 432.168124 290.919682 
L 431.889256 293.730248 
L 431.424474 301.29867 
L 430.169565 322.703001 
L 429.658306 327.812809 
L 429.240003 330.134715 
L 428.914656 330.865162 
L 428.728744 330.908958 
L 428.496353 330.653061 
L 428.07805 329.691353 
L 427.659747 328.901868 
L 427.473834 328.862049 
L 427.287922 329.098619 
L 427.055531 329.811946 
L 426.683706 331.809136 
L 425.242885 340.629481 
L 424.778104 341.890879 
L 424.313322 342.530695 
L 423.802063 342.837691 
L 423.104891 342.969556 
L 422.500676 342.887818 
L 421.942938 342.571649 
L 421.338723 341.950793 
L 420.595073 340.852629 
L 419.851423 339.377134 
L 419.154251 337.474548 
L 418.45708 334.886506 
L 417.573995 330.633472 
L 416.133174 323.545007 
L 415.621914 322.084411 
L 414.785308 320.093291 
L 414.459961 318.471935 
L 414.088136 315.406092 
L 413.669833 310.012741 
L 413.158574 300.128884 
L 412.600837 284.752834 
L 411.624796 249.795033 
L 411.113537 235.842223 
L 410.834668 232.93107 
L 410.78819 232.84877 
L 410.741712 232.884699 
L 410.602278 233.694655 
L 410.369887 237.24435 
L 409.998062 247.41027 
L 408.092459 306.972657 
L 407.441766 318.442405 
L 406.744594 326.925294 
L 406.047422 332.794114 
L 405.303772 337.186744 
L 404.560122 340.319218 
L 403.769994 342.736464 
L 402.933388 344.610818 
L 402.050304 346.073054 
L 401.074264 347.270721 
L 400.005267 348.240081 
L 398.750358 349.071549 
L 397.309536 349.756572 
L 395.543368 350.344302 
L 393.312418 350.842591 
L 390.384296 351.257398 
L 387.08435 351.544849 
L 387.08435 351.544849 
" style="fill:none;stroke:#1f77b4;stroke-linecap:square;stroke-width:1.5;"/>
   </g>
   <g id="patch_28">
    <path d="M 387.105882 352.207059 
L 387.105882 220.912941 
" style="fill:none;stroke:#000000;stroke-linecap:square;stroke-linejoin:miter;stroke-width:0.8;"/>
   </g>
   <g id="patch_29">
    <path d="M 518.4 352.207059 
L 518.4 220.912941 
" style="fill:none;stroke:#000000;stroke-linecap:square;stroke-linejoin:miter;stroke-width:0.8;"/>
   </g>
   <g id="patch_30">
    <path d="M 387.105882 352.207059 
L 518.4 352.207059 
" style="fill:none;stroke:#000000;stroke-linecap:square;stroke-linejoin:miter;stroke-width:0.8;"/>
   </g>
   <g id="patch_31">
    <path d="M 387.105882 220.912941 
L 518.4 220.912941 
" style="fill:none;stroke:#000000;stroke-linecap:square;stroke-linejoin:miter;stroke-width:0.8;"/>
   </g>
  </g>
  <g id="axes_7">
   <g id="patch_32">
    <path d="M 72 497.167059 
L 203.294118 497.167059 
L 203.294118 365.872941 
L 72 365.872941 
z
" style="fill:none;"/>
   </g>
   <g id="matplotlib.axis_13">
    <g id="xtick_25">
     <g id="line2d_58">
      <g>
       <use style="stroke:#000000;stroke-width:0.8;" x="98.258824" xlink:href="#m960a0f04ff" y="497.167059"/>
      </g>
     </g>
     <g id="text_28">
      <!-- 40000 -->
      <g transform="translate(82.352574 511.765496)scale(0.1 -0.1)">
       <use xlink:href="#DejaVuSans-52"/>
       <use x="63.623047" xlink:href="#DejaVuSans-48"/>
       <use x="127.246094" xlink:href="#DejaVuSans-48"/>
       <use x="190.869141" xlink:href="#DejaVuSans-48"/>
       <use x="254.492188" xlink:href="#DejaVuSans-48"/>
      </g>
     </g>
    </g>
    <g id="xtick_26">
     <g id="line2d_59">
      <g>
       <use style="stroke:#000000;stroke-width:0.8;" x="131.082353" xlink:href="#m960a0f04ff" y="497.167059"/>
      </g>
     </g>
     <g id="text_29">
      <!-- 42500 -->
      <g transform="translate(115.176103 511.765496)scale(0.1 -0.1)">
       <use xlink:href="#DejaVuSans-52"/>
       <use x="63.623047" xlink:href="#DejaVuSans-50"/>
       <use x="127.246094" xlink:href="#DejaVuSans-53"/>
       <use x="190.869141" xlink:href="#DejaVuSans-48"/>
       <use x="254.492188" xlink:href="#DejaVuSans-48"/>
      </g>
     </g>
    </g>
    <g id="xtick_27">
     <g id="line2d_60">
      <g>
       <use style="stroke:#000000;stroke-width:0.8;" x="163.905882" xlink:href="#m960a0f04ff" y="497.167059"/>
      </g>
     </g>
     <g id="text_30">
      <!-- 45000 -->
      <g transform="translate(147.999632 511.765496)scale(0.1 -0.1)">
       <use xlink:href="#DejaVuSans-52"/>
       <use x="63.623047" xlink:href="#DejaVuSans-53"/>
       <use x="127.246094" xlink:href="#DejaVuSans-48"/>
       <use x="190.869141" xlink:href="#DejaVuSans-48"/>
       <use x="254.492188" xlink:href="#DejaVuSans-48"/>
      </g>
     </g>
    </g>
    <g id="xtick_28">
     <g id="line2d_61">
      <g>
       <use style="stroke:#000000;stroke-width:0.8;" x="196.729412" xlink:href="#m960a0f04ff" y="497.167059"/>
      </g>
     </g>
     <g id="text_31">
      <!-- 47500 -->
      <defs>
       <path d="M 8.203125 72.90625 
L 55.078125 72.90625 
L 55.078125 68.703125 
L 28.609375 0 
L 18.3125 0 
L 43.21875 64.59375 
L 8.203125 64.59375 
z
" id="DejaVuSans-55"/>
      </defs>
      <g transform="translate(180.823162 511.765496)scale(0.1 -0.1)">
       <use xlink:href="#DejaVuSans-52"/>
       <use x="63.623047" xlink:href="#DejaVuSans-55"/>
       <use x="127.246094" xlink:href="#DejaVuSans-53"/>
       <use x="190.869141" xlink:href="#DejaVuSans-48"/>
       <use x="254.492188" xlink:href="#DejaVuSans-48"/>
      </g>
     </g>
    </g>
   </g>
   <g id="matplotlib.axis_14">
    <g id="ytick_28">
     <g id="line2d_62">
      <g>
       <use style="stroke:#000000;stroke-width:0.8;" x="72" xlink:href="#m0fae194259" y="497.167059"/>
      </g>
     </g>
     <g id="text_32">
      <!-- 0 -->
      <g transform="translate(58.6375 500.966278)scale(0.1 -0.1)">
       <use xlink:href="#DejaVuSans-48"/>
      </g>
     </g>
    </g>
    <g id="ytick_29">
     <g id="line2d_63">
      <g>
       <use style="stroke:#000000;stroke-width:0.8;" x="72" xlink:href="#m0fae194259" y="473.690028"/>
      </g>
     </g>
     <g id="text_33">
      <!-- 1 -->
      <g transform="translate(58.6375 477.489247)scale(0.1 -0.1)">
       <use xlink:href="#DejaVuSans-49"/>
      </g>
     </g>
    </g>
    <g id="ytick_30">
     <g id="line2d_64">
      <g>
       <use style="stroke:#000000;stroke-width:0.8;" x="72" xlink:href="#m0fae194259" y="450.212998"/>
      </g>
     </g>
     <g id="text_34">
      <!-- 2 -->
      <g transform="translate(58.6375 454.012216)scale(0.1 -0.1)">
       <use xlink:href="#DejaVuSans-50"/>
      </g>
     </g>
    </g>
    <g id="ytick_31">
     <g id="line2d_65">
      <g>
       <use style="stroke:#000000;stroke-width:0.8;" x="72" xlink:href="#m0fae194259" y="426.735967"/>
      </g>
     </g>
     <g id="text_35">
      <!-- 3 -->
      <g transform="translate(58.6375 430.535186)scale(0.1 -0.1)">
       <use xlink:href="#DejaVuSans-51"/>
      </g>
     </g>
    </g>
    <g id="ytick_32">
     <g id="line2d_66">
      <g>
       <use style="stroke:#000000;stroke-width:0.8;" x="72" xlink:href="#m0fae194259" y="403.258937"/>
      </g>
     </g>
     <g id="text_36">
      <!-- 4 -->
      <g transform="translate(58.6375 407.058155)scale(0.1 -0.1)">
       <use xlink:href="#DejaVuSans-52"/>
      </g>
     </g>
    </g>
    <g id="ytick_33">
     <g id="line2d_67">
      <g>
       <use style="stroke:#000000;stroke-width:0.8;" x="72" xlink:href="#m0fae194259" y="379.781906"/>
      </g>
     </g>
     <g id="text_37">
      <!-- 5 -->
      <g transform="translate(58.6375 383.581125)scale(0.1 -0.1)">
       <use xlink:href="#DejaVuSans-53"/>
      </g>
     </g>
    </g>
   </g>
   <g id="line2d_68">
    <path clip-path="url(#p1c06c20b42)" d="M 203.325628 496.812157 
L 201.187635 496.540993 
L 200.025682 496.517731 
L 197.236995 496.672825 
L 194.40183 496.301833 
L 193.193399 496.603302 
L 192.124402 496.77133 
L 191.008927 496.704297 
L 189.056846 496.561411 
L 185.524509 496.628565 
L 183.479472 496.375711 
L 181.992172 496.261607 
L 181.387957 495.934354 
L 180.690785 495.261706 
L 179.017573 493.464262 
L 178.645748 493.427097 
L 178.273923 493.633366 
L 177.762664 494.229506 
L 176.554232 495.736084 
L 176.135929 495.917669 
L 175.764104 495.853997 
L 175.345801 495.532435 
L 174.788064 494.783057 
L 173.39372 492.771463 
L 172.975417 492.57708 
L 172.650071 492.661972 
L 172.278246 493.008202 
L 171.67403 493.938256 
L 170.69799 495.397817 
L 170.140252 495.848834 
L 169.628993 495.985273 
L 169.024777 495.901283 
L 167.398043 495.555855 
L 166.74735 495.722751 
L 165.771309 496.274616 
L 164.981181 496.61873 
L 164.376966 496.656788 
L 163.633316 496.461676 
L 162.378407 496.106853 
L 161.774191 496.20322 
L 160.798151 496.445128 
L 160.519282 496.267703 
L 160.193935 495.749207 
L 159.82211 494.646538 
L 159.357329 492.448407 
L 158.753113 488.369284 
L 157.312292 477.90207 
L 157.033423 477.269237 
L 156.893989 477.271413 
L 156.708076 477.607704 
L 156.429208 478.768187 
L 155.964426 481.997204 
L 154.616561 492.236802 
L 154.244736 493.544274 
L 154.012345 493.81966 
L 153.826433 493.730614 
L 153.594042 493.246315 
L 153.268696 491.941607 
L 152.757436 488.774247 
L 151.316615 479.203759 
L 150.991268 478.464021 
L 150.805355 478.44136 
L 150.619443 478.69839 
L 150.340574 479.53727 
L 149.829315 482.011587 
L 148.574406 488.383674 
L 148.063146 489.898 
L 147.644843 490.568504 
L 147.22654 490.836867 
L 146.808237 490.841726 
L 145.274459 490.624321 
L 144.856156 490.948016 
L 144.391375 491.616763 
L 143.601247 493.243234 
L 142.764641 494.801129 
L 142.29986 495.254725 
L 141.881557 495.37258 
L 141.416776 495.253692 
L 140.208344 494.809745 
L 139.83652 494.996748 
L 138.999913 495.564331 
L 138.814001 495.416511 
L 138.58161 494.896928 
L 138.302742 493.630925 
L 137.977395 491.074316 
L 137.559092 485.852759 
L 137.047832 476.403087 
L 136.211226 455.702312 
L 135.607011 442.917942 
L 135.281664 439.631632 
L 135.095752 439.218706 
L 135.002795 439.411683 
L 134.816883 440.550024 
L 134.538014 443.91046 
L 134.073233 452.668196 
L 132.446499 485.977113 
L 132.074674 489.175756 
L 131.842283 489.925843 
L 131.702849 489.937876 
L 131.563415 489.64395 
L 131.331024 488.537051 
L 130.959199 485.43209 
L 130.308505 477.528742 
L 129.471899 467.737424 
L 129.053596 465.19814 
L 128.774728 464.612732 
L 128.588815 464.650572 
L 128.356424 465.083108 
L 127.9846 466.394207 
L 126.311387 473.114433 
L 125.893084 473.744236 
L 125.521259 473.938059 
L 125.149434 473.881376 
L 124.638175 473.531868 
L 123.29031 472.442406 
L 122.964963 472.523136 
L 122.639616 472.896702 
L 122.267791 473.738555 
L 121.663576 475.819026 
L 121.105838 477.514 
L 120.826969 477.854056 
L 120.641057 477.80329 
L 120.455144 477.498487 
L 120.176276 476.519545 
L 119.804451 474.157252 
L 119.33967 469.399084 
L 118.735454 460.525634 
L 117.85237 447.763191 
L 117.573501 446.06973 
L 117.434067 445.932288 
L 117.294632 446.301238 
L 117.062242 448.016227 
L 116.690417 453.140503 
L 115.249595 475.813148 
L 114.924248 477.473737 
L 114.738336 477.622109 
L 114.598902 477.373223 
L 114.366511 476.358914 
L 113.948208 473.263631 
L 113.204558 467.885097 
L 112.879211 466.901935 
L 112.693299 466.834557 
L 112.507386 467.124777 
L 112.228518 468.198982 
L 111.856693 470.705664 
L 111.252477 476.626437 
L 110.322915 485.48247 
L 109.811656 488.372048 
L 109.346874 489.823328 
L 108.928571 490.48047 
L 108.46379 490.790206 
L 107.952531 490.863357 
L 107.394793 490.731173 
L 106.837056 490.355197 
L 106.23284 489.663888 
L 105.442712 488.385145 
L 104.652584 486.680656 
L 103.955413 484.638913 
L 103.211763 481.698069 
L 102.2822 476.951787 
L 100.980813 470.335756 
L 100.423076 468.64722 
L 99.679426 466.682988 
L 99.307601 464.738538 
L 98.935776 461.504362 
L 98.517473 455.89982 
L 98.006214 445.699585 
L 97.448476 429.878772 
L 95.821742 378.643521 
L 95.63583 377.80877 
L 95.542873 378.100154 
L 95.356961 380.052762 
L 95.078092 385.977025 
L 94.566833 402.642692 
L 93.40488 440.794823 
L 92.707708 456.182463 
L 92.010536 466.732937 
L 91.313365 473.9941 
L 90.616193 479.0961 
L 89.872543 482.978696 
L 89.082415 485.941831 
L 88.245809 488.216245 
L 87.362725 489.974661 
L 86.433162 491.344875 
L 85.410644 492.465271 
L 84.248691 493.404944 
L 82.900825 494.19773 
L 81.320569 494.860994 
L 79.368488 495.428731 
L 76.905148 495.904305 
L 73.605202 496.302179 
L 71.978468 496.437295 
L 71.978468 496.437295 
" style="fill:none;stroke:#1f77b4;stroke-linecap:square;stroke-width:1.5;"/>
   </g>
   <g id="patch_33">
    <path d="M 72 497.167059 
L 72 365.872941 
" style="fill:none;stroke:#000000;stroke-linecap:square;stroke-linejoin:miter;stroke-width:0.8;"/>
   </g>
   <g id="patch_34">
    <path d="M 203.294118 497.167059 
L 203.294118 365.872941 
" style="fill:none;stroke:#000000;stroke-linecap:square;stroke-linejoin:miter;stroke-width:0.8;"/>
   </g>
   <g id="patch_35">
    <path d="M 72 497.167059 
L 203.294118 497.167059 
" style="fill:none;stroke:#000000;stroke-linecap:square;stroke-linejoin:miter;stroke-width:0.8;"/>
   </g>
   <g id="patch_36">
    <path d="M 72 365.872941 
L 203.294118 365.872941 
" style="fill:none;stroke:#000000;stroke-linecap:square;stroke-linejoin:miter;stroke-width:0.8;"/>
   </g>
  </g>
  <g id="axes_8">
   <g id="patch_37">
    <path d="M 229.552941 497.167059 
L 360.847059 497.167059 
L 360.847059 365.872941 
L 229.552941 365.872941 
z
" style="fill:none;"/>
   </g>
   <g id="matplotlib.axis_15">
    <g id="xtick_29">
     <g id="line2d_69">
      <g>
       <use style="stroke:#000000;stroke-width:0.8;" x="255.811765" xlink:href="#m960a0f04ff" y="497.167059"/>
      </g>
     </g>
     <g id="text_38">
      <!-- 40000 -->
      <g transform="translate(239.905515 511.765496)scale(0.1 -0.1)">
       <use xlink:href="#DejaVuSans-52"/>
       <use x="63.623047" xlink:href="#DejaVuSans-48"/>
       <use x="127.246094" xlink:href="#DejaVuSans-48"/>
       <use x="190.869141" xlink:href="#DejaVuSans-48"/>
       <use x="254.492188" xlink:href="#DejaVuSans-48"/>
      </g>
     </g>
    </g>
    <g id="xtick_30">
     <g id="line2d_70">
      <g>
       <use style="stroke:#000000;stroke-width:0.8;" x="288.635294" xlink:href="#m960a0f04ff" y="497.167059"/>
      </g>
     </g>
     <g id="text_39">
      <!-- 42500 -->
      <g transform="translate(272.729044 511.765496)scale(0.1 -0.1)">
       <use xlink:href="#DejaVuSans-52"/>
       <use x="63.623047" xlink:href="#DejaVuSans-50"/>
       <use x="127.246094" xlink:href="#DejaVuSans-53"/>
       <use x="190.869141" xlink:href="#DejaVuSans-48"/>
       <use x="254.492188" xlink:href="#DejaVuSans-48"/>
      </g>
     </g>
    </g>
    <g id="xtick_31">
     <g id="line2d_71">
      <g>
       <use style="stroke:#000000;stroke-width:0.8;" x="321.458824" xlink:href="#m960a0f04ff" y="497.167059"/>
      </g>
     </g>
     <g id="text_40">
      <!-- 45000 -->
      <g transform="translate(305.552574 511.765496)scale(0.1 -0.1)">
       <use xlink:href="#DejaVuSans-52"/>
       <use x="63.623047" xlink:href="#DejaVuSans-53"/>
       <use x="127.246094" xlink:href="#DejaVuSans-48"/>
       <use x="190.869141" xlink:href="#DejaVuSans-48"/>
       <use x="254.492188" xlink:href="#DejaVuSans-48"/>
      </g>
     </g>
    </g>
    <g id="xtick_32">
     <g id="line2d_72">
      <g>
       <use style="stroke:#000000;stroke-width:0.8;" x="354.282353" xlink:href="#m960a0f04ff" y="497.167059"/>
      </g>
     </g>
     <g id="text_41">
      <!-- 47500 -->
      <g transform="translate(338.376103 511.765496)scale(0.1 -0.1)">
       <use xlink:href="#DejaVuSans-52"/>
       <use x="63.623047" xlink:href="#DejaVuSans-55"/>
       <use x="127.246094" xlink:href="#DejaVuSans-53"/>
       <use x="190.869141" xlink:href="#DejaVuSans-48"/>
       <use x="254.492188" xlink:href="#DejaVuSans-48"/>
      </g>
     </g>
    </g>
   </g>
   <g id="matplotlib.axis_16">
    <g id="ytick_34">
     <g id="line2d_73">
      <g>
       <use style="stroke:#000000;stroke-width:0.8;" x="229.552941" xlink:href="#m0fae194259" y="497.167059"/>
      </g>
     </g>
     <g id="text_42">
      <!-- 0 -->
      <g transform="translate(216.190441 500.966278)scale(0.1 -0.1)">
       <use xlink:href="#DejaVuSans-48"/>
      </g>
     </g>
    </g>
    <g id="ytick_35">
     <g id="line2d_74">
      <g>
       <use style="stroke:#000000;stroke-width:0.8;" x="229.552941" xlink:href="#m0fae194259" y="473.926144"/>
      </g>
     </g>
     <g id="text_43">
      <!-- 20 -->
      <g transform="translate(209.827941 477.725362)scale(0.1 -0.1)">
       <use xlink:href="#DejaVuSans-50"/>
       <use x="63.623047" xlink:href="#DejaVuSans-48"/>
      </g>
     </g>
    </g>
    <g id="ytick_36">
     <g id="line2d_75">
      <g>
       <use style="stroke:#000000;stroke-width:0.8;" x="229.552941" xlink:href="#m0fae194259" y="450.685228"/>
      </g>
     </g>
     <g id="text_44">
      <!-- 40 -->
      <g transform="translate(209.827941 454.484447)scale(0.1 -0.1)">
       <use xlink:href="#DejaVuSans-52"/>
       <use x="63.623047" xlink:href="#DejaVuSans-48"/>
      </g>
     </g>
    </g>
    <g id="ytick_37">
     <g id="line2d_76">
      <g>
       <use style="stroke:#000000;stroke-width:0.8;" x="229.552941" xlink:href="#m0fae194259" y="427.444313"/>
      </g>
     </g>
     <g id="text_45">
      <!-- 60 -->
      <defs>
       <path d="M 33.015625 40.375 
Q 26.375 40.375 22.484375 35.828125 
Q 18.609375 31.296875 18.609375 23.390625 
Q 18.609375 15.53125 22.484375 10.953125 
Q 26.375 6.390625 33.015625 6.390625 
Q 39.65625 6.390625 43.53125 10.953125 
Q 47.40625 15.53125 47.40625 23.390625 
Q 47.40625 31.296875 43.53125 35.828125 
Q 39.65625 40.375 33.015625 40.375 
z
M 52.59375 71.296875 
L 52.59375 62.3125 
Q 48.875 64.0625 45.09375 64.984375 
Q 41.3125 65.921875 37.59375 65.921875 
Q 27.828125 65.921875 22.671875 59.328125 
Q 17.53125 52.734375 16.796875 39.40625 
Q 19.671875 43.65625 24.015625 45.921875 
Q 28.375 48.1875 33.59375 48.1875 
Q 44.578125 48.1875 50.953125 41.515625 
Q 57.328125 34.859375 57.328125 23.390625 
Q 57.328125 12.15625 50.6875 5.359375 
Q 44.046875 -1.421875 33.015625 -1.421875 
Q 20.359375 -1.421875 13.671875 8.265625 
Q 6.984375 17.96875 6.984375 36.375 
Q 6.984375 53.65625 15.1875 63.9375 
Q 23.390625 74.21875 37.203125 74.21875 
Q 40.921875 74.21875 44.703125 73.484375 
Q 48.484375 72.75 52.59375 71.296875 
z
" id="DejaVuSans-54"/>
      </defs>
      <g transform="translate(209.827941 431.243532)scale(0.1 -0.1)">
       <use xlink:href="#DejaVuSans-54"/>
       <use x="63.623047" xlink:href="#DejaVuSans-48"/>
      </g>
     </g>
    </g>
    <g id="ytick_38">
     <g id="line2d_77">
      <g>
       <use style="stroke:#000000;stroke-width:0.8;" x="229.552941" xlink:href="#m0fae194259" y="404.203398"/>
      </g>
     </g>
     <g id="text_46">
      <!-- 80 -->
      <defs>
       <path d="M 31.78125 34.625 
Q 24.75 34.625 20.71875 30.859375 
Q 16.703125 27.09375 16.703125 20.515625 
Q 16.703125 13.921875 20.71875 10.15625 
Q 24.75 6.390625 31.78125 6.390625 
Q 38.8125 6.390625 42.859375 10.171875 
Q 46.921875 13.96875 46.921875 20.515625 
Q 46.921875 27.09375 42.890625 30.859375 
Q 38.875 34.625 31.78125 34.625 
z
M 21.921875 38.8125 
Q 15.578125 40.375 12.03125 44.71875 
Q 8.5 49.078125 8.5 55.328125 
Q 8.5 64.0625 14.71875 69.140625 
Q 20.953125 74.21875 31.78125 74.21875 
Q 42.671875 74.21875 48.875 69.140625 
Q 55.078125 64.0625 55.078125 55.328125 
Q 55.078125 49.078125 51.53125 44.71875 
Q 48 40.375 41.703125 38.8125 
Q 48.828125 37.15625 52.796875 32.3125 
Q 56.78125 27.484375 56.78125 20.515625 
Q 56.78125 9.90625 50.3125 4.234375 
Q 43.84375 -1.421875 31.78125 -1.421875 
Q 19.734375 -1.421875 13.25 4.234375 
Q 6.78125 9.90625 6.78125 20.515625 
Q 6.78125 27.484375 10.78125 32.3125 
Q 14.796875 37.15625 21.921875 38.8125 
z
M 18.3125 54.390625 
Q 18.3125 48.734375 21.84375 45.5625 
Q 25.390625 42.390625 31.78125 42.390625 
Q 38.140625 42.390625 41.71875 45.5625 
Q 45.3125 48.734375 45.3125 54.390625 
Q 45.3125 60.0625 41.71875 63.234375 
Q 38.140625 66.40625 31.78125 66.40625 
Q 25.390625 66.40625 21.84375 63.234375 
Q 18.3125 60.0625 18.3125 54.390625 
z
" id="DejaVuSans-56"/>
      </defs>
      <g transform="translate(209.827941 408.002616)scale(0.1 -0.1)">
       <use xlink:href="#DejaVuSans-56"/>
       <use x="63.623047" xlink:href="#DejaVuSans-48"/>
      </g>
     </g>
    </g>
    <g id="ytick_39">
     <g id="line2d_78">
      <g>
       <use style="stroke:#000000;stroke-width:0.8;" x="229.552941" xlink:href="#m0fae194259" y="380.962482"/>
      </g>
     </g>
     <g id="text_47">
      <!-- 100 -->
      <g transform="translate(203.465441 384.761701)scale(0.1 -0.1)">
       <use xlink:href="#DejaVuSans-49"/>
       <use x="63.623047" xlink:href="#DejaVuSans-48"/>
       <use x="127.246094" xlink:href="#DejaVuSans-48"/>
      </g>
     </g>
    </g>
   </g>
   <g id="line2d_79">
    <path clip-path="url(#pddff1d8789)" d="M 360.878569 496.480046 
L 359.62366 496.458657 
L 356.974408 496.570313 
L 353.813896 496.355967 
L 351.536468 496.675342 
L 349.630865 496.531566 
L 348.050609 496.523365 
L 346.145006 496.53935 
L 344.611228 496.26204 
L 342.194366 495.822759 
L 341.264804 495.557916 
L 340.474676 495.089718 
L 339.591592 494.274987 
L 338.754985 493.563494 
L 338.336682 493.482301 
L 337.918379 493.649296 
L 337.314164 494.179886 
L 336.291645 495.069456 
L 335.733908 495.273176 
L 335.222648 495.23084 
L 334.664911 494.94217 
L 333.874783 494.231279 
L 332.945221 493.458351 
L 332.526918 493.39019 
L 332.155093 493.553581 
L 331.597355 494.100061 
L 330.295968 495.478938 
L 329.645274 495.826608 
L 328.948103 495.954522 
L 327.925584 495.88261 
L 326.670675 495.822 
L 325.648156 496.058395 
L 324.718594 496.191645 
L 323.974944 496.063591 
L 323.184816 495.67916 
L 319.791913 493.404673 
L 319.327132 492.562531 
L 318.862351 491.210663 
L 318.351092 488.944633 
L 317.65392 484.574906 
L 317.003226 480.815131 
L 316.67788 479.931662 
L 316.491967 479.824894 
L 316.306055 479.99475 
L 316.027186 480.691538 
L 315.562405 482.646585 
L 314.121583 489.198626 
L 313.610324 490.457984 
L 313.284977 490.814209 
L 313.006108 490.816336 
L 312.72724 490.535178 
L 312.355415 489.741788 
L 311.844155 487.983346 
L 310.868115 484.409912 
L 310.542768 484.005006 
L 310.310377 484.060095 
L 310.031509 484.451552 
L 309.613206 485.501772 
L 307.568168 491.283549 
L 306.77804 492.616018 
L 306.127347 493.320513 
L 305.523131 493.670139 
L 304.035832 494.342822 
L 302.130229 495.580272 
L 301.618969 495.588981 
L 301.154188 495.367133 
L 300.596451 494.801517 
L 299.666888 493.827361 
L 299.202107 493.699753 
L 297.947198 493.608316 
L 297.668329 493.221339 
L 297.389461 492.466271 
L 297.064114 490.860585 
L 296.738767 488.101076 
L 296.320464 482.300401 
L 295.716248 470.011814 
L 295.019077 457.2146 
L 294.647252 453.947152 
L 294.414861 453.276674 
L 294.275427 453.307799 
L 294.089514 453.771143 
L 293.764168 455.474768 
L 293.20643 459.969268 
L 290.650134 482.336165 
L 290.324787 483.311838 
L 290.138874 483.425137 
L 289.952962 483.206381 
L 289.674093 482.34084 
L 288.326228 477.110697 
L 288.000881 476.810441 
L 287.722012 476.836188 
L 287.396665 477.110223 
L 286.885406 477.872073 
L 286.0488 479.549011 
L 285.212194 481.727767 
L 283.957285 485.051556 
L 283.492504 485.710236 
L 283.0742 485.963764 
L 282.562941 485.989346 
L 281.215076 485.917513 
L 280.657338 486.201752 
L 279.216517 487.136391 
L 278.937648 486.839507 
L 278.612301 486.094634 
L 278.054564 484.087354 
L 277.078523 480.606254 
L 276.66022 479.837542 
L 276.42783 479.762953 
L 276.241917 479.951109 
L 276.009527 480.573023 
L 275.730658 482.000356 
L 275.358833 485.161421 
L 274.289836 495.273284 
L 274.150402 495.402379 
L 274.010968 495.088704 
L 273.778577 493.659483 
L 273.360274 489.084523 
L 272.058887 473.756771 
L 271.315237 467.851254 
L 270.711021 464.609019 
L 270.339196 463.60154 
L 270.106806 463.46911 
L 269.920893 463.676484 
L 269.688503 464.361076 
L 269.363156 466.164792 
L 268.944853 469.897002 
L 267.132206 488.207362 
L 266.620947 490.429775 
L 266.156166 491.562046 
L 265.691384 492.180738 
L 265.180125 492.50563 
L 264.715344 492.550698 
L 264.250563 492.364782 
L 263.739304 491.912065 
L 263.08861 491.019042 
L 262.34496 489.603798 
L 261.647788 487.778592 
L 260.950616 485.275156 
L 260.160488 481.52349 
L 258.161929 471.463966 
L 256.953498 467.41746 
L 256.581673 464.576011 
L 256.16337 459.540424 
L 255.698589 451.156805 
L 255.140852 436.597387 
L 254.44368 411.798015 
L 253.607074 383.07699 
L 253.281727 378.186415 
L 253.142293 377.80877 
L 253.049336 378.148845 
L 252.863424 380.186157 
L 252.538077 387.4438 
L 251.887384 409.345142 
L 250.957821 438.941278 
L 250.260649 454.48543 
L 249.563478 465.23412 
L 248.866306 472.685241 
L 248.169134 477.954431 
L 247.425484 481.988499 
L 246.635356 485.085531 
L 245.79875 487.476631 
L 244.915666 489.335909 
L 243.986104 490.792919 
L 242.963585 491.991037 
L 241.801632 493.001807 
L 240.500245 493.834597 
L 238.966467 494.546435 
L 237.107342 495.155782 
L 234.783436 495.674194 
L 231.762359 496.109969 
L 229.531409 496.327686 
L 229.531409 496.327686 
" style="fill:none;stroke:#1f77b4;stroke-linecap:square;stroke-width:1.5;"/>
   </g>
   <g id="patch_38">
    <path d="M 229.552941 497.167059 
L 229.552941 365.872941 
" style="fill:none;stroke:#000000;stroke-linecap:square;stroke-linejoin:miter;stroke-width:0.8;"/>
   </g>
   <g id="patch_39">
    <path d="M 360.847059 497.167059 
L 360.847059 365.872941 
" style="fill:none;stroke:#000000;stroke-linecap:square;stroke-linejoin:miter;stroke-width:0.8;"/>
   </g>
   <g id="patch_40">
    <path d="M 229.552941 497.167059 
L 360.847059 497.167059 
" style="fill:none;stroke:#000000;stroke-linecap:square;stroke-linejoin:miter;stroke-width:0.8;"/>
   </g>
   <g id="patch_41">
    <path d="M 229.552941 365.872941 
L 360.847059 365.872941 
" style="fill:none;stroke:#000000;stroke-linecap:square;stroke-linejoin:miter;stroke-width:0.8;"/>
   </g>
  </g>
  <g id="axes_9">
   <g id="patch_42">
    <path d="M 387.105882 497.167059 
L 518.4 497.167059 
L 518.4 365.872941 
L 387.105882 365.872941 
z
" style="fill:none;"/>
   </g>
   <g id="matplotlib.axis_17">
    <g id="xtick_33">
     <g id="line2d_80">
      <g>
       <use style="stroke:#000000;stroke-width:0.8;" x="413.364706" xlink:href="#m960a0f04ff" y="497.167059"/>
      </g>
     </g>
     <g id="text_48">
      <!-- 40000 -->
      <g transform="translate(397.458456 511.765496)scale(0.1 -0.1)">
       <use xlink:href="#DejaVuSans-52"/>
       <use x="63.623047" xlink:href="#DejaVuSans-48"/>
       <use x="127.246094" xlink:href="#DejaVuSans-48"/>
       <use x="190.869141" xlink:href="#DejaVuSans-48"/>
       <use x="254.492188" xlink:href="#DejaVuSans-48"/>
      </g>
     </g>
    </g>
    <g id="xtick_34">
     <g id="line2d_81">
      <g>
       <use style="stroke:#000000;stroke-width:0.8;" x="446.188235" xlink:href="#m960a0f04ff" y="497.167059"/>
      </g>
     </g>
     <g id="text_49">
      <!-- 42500 -->
      <g transform="translate(430.281985 511.765496)scale(0.1 -0.1)">
       <use xlink:href="#DejaVuSans-52"/>
       <use x="63.623047" xlink:href="#DejaVuSans-50"/>
       <use x="127.246094" xlink:href="#DejaVuSans-53"/>
       <use x="190.869141" xlink:href="#DejaVuSans-48"/>
       <use x="254.492188" xlink:href="#DejaVuSans-48"/>
      </g>
     </g>
    </g>
    <g id="xtick_35">
     <g id="line2d_82">
      <g>
       <use style="stroke:#000000;stroke-width:0.8;" x="479.011765" xlink:href="#m960a0f04ff" y="497.167059"/>
      </g>
     </g>
     <g id="text_50">
      <!-- 45000 -->
      <g transform="translate(463.105515 511.765496)scale(0.1 -0.1)">
       <use xlink:href="#DejaVuSans-52"/>
       <use x="63.623047" xlink:href="#DejaVuSans-53"/>
       <use x="127.246094" xlink:href="#DejaVuSans-48"/>
       <use x="190.869141" xlink:href="#DejaVuSans-48"/>
       <use x="254.492188" xlink:href="#DejaVuSans-48"/>
      </g>
     </g>
    </g>
    <g id="xtick_36">
     <g id="line2d_83">
      <g>
       <use style="stroke:#000000;stroke-width:0.8;" x="511.835294" xlink:href="#m960a0f04ff" y="497.167059"/>
      </g>
     </g>
     <g id="text_51">
      <!-- 47500 -->
      <g transform="translate(495.929044 511.765496)scale(0.1 -0.1)">
       <use xlink:href="#DejaVuSans-52"/>
       <use x="63.623047" xlink:href="#DejaVuSans-55"/>
       <use x="127.246094" xlink:href="#DejaVuSans-53"/>
       <use x="190.869141" xlink:href="#DejaVuSans-48"/>
       <use x="254.492188" xlink:href="#DejaVuSans-48"/>
      </g>
     </g>
    </g>
    <g id="text_52">
     <!-- $\omega_I$ (cm$^{-1}$) -->
     <defs>
      <path d="M 21.390625 -1.421875 
Q 1.125 -1.421875 6.78125 27.59375 
Q 8.984375 39.0625 19.625 54.6875 
L 29.296875 54.6875 
Q 19.234375 39.0625 17 27.34375 
Q 12.796875 6.203125 23.734375 6.203125 
Q 33.84375 6.203125 38.71875 32.46875 
L 47.015625 32.46875 
Q 41.703125 6.0625 51.8125 6.203125 
Q 62.703125 6.296875 66.796875 27.34375 
Q 69.046875 39.0625 65.140625 54.6875 
L 74.8125 54.6875 
Q 79.296875 39.0625 77.09375 27.59375 
Q 71.53125 -1.46875 51.21875 -1.421875 
Q 37.9375 -1.375 39.109375 13.1875 
Q 34.28125 -1.421875 21.390625 -1.421875 
z
" id="DejaVuSans-Oblique-969"/>
      <path d="M 16.890625 72.90625 
L 26.8125 72.90625 
L 12.59375 0 
L 2.6875 0 
z
" id="DejaVuSans-Oblique-73"/>
      <path id="DejaVuSans-32"/>
      <path d="M 31 75.875 
Q 24.46875 64.65625 21.28125 53.65625 
Q 18.109375 42.671875 18.109375 31.390625 
Q 18.109375 20.125 21.3125 9.0625 
Q 24.515625 -2 31 -13.1875 
L 23.1875 -13.1875 
Q 15.875 -1.703125 12.234375 9.375 
Q 8.59375 20.453125 8.59375 31.390625 
Q 8.59375 42.28125 12.203125 53.3125 
Q 15.828125 64.359375 23.1875 75.875 
z
" id="DejaVuSans-40"/>
      <path d="M 48.78125 52.59375 
L 48.78125 44.1875 
Q 44.96875 46.296875 41.140625 47.34375 
Q 37.3125 48.390625 33.40625 48.390625 
Q 24.65625 48.390625 19.8125 42.84375 
Q 14.984375 37.3125 14.984375 27.296875 
Q 14.984375 17.28125 19.8125 11.734375 
Q 24.65625 6.203125 33.40625 6.203125 
Q 37.3125 6.203125 41.140625 7.25 
Q 44.96875 8.296875 48.78125 10.40625 
L 48.78125 2.09375 
Q 45.015625 0.34375 40.984375 -0.53125 
Q 36.96875 -1.421875 32.421875 -1.421875 
Q 20.0625 -1.421875 12.78125 6.34375 
Q 5.515625 14.109375 5.515625 27.296875 
Q 5.515625 40.671875 12.859375 48.328125 
Q 20.21875 56 33.015625 56 
Q 37.15625 56 41.109375 55.140625 
Q 45.0625 54.296875 48.78125 52.59375 
z
" id="DejaVuSans-99"/>
      <path d="M 52 44.1875 
Q 55.375 50.25 60.0625 53.125 
Q 64.75 56 71.09375 56 
Q 79.640625 56 84.28125 50.015625 
Q 88.921875 44.046875 88.921875 33.015625 
L 88.921875 0 
L 79.890625 0 
L 79.890625 32.71875 
Q 79.890625 40.578125 77.09375 44.375 
Q 74.3125 48.1875 68.609375 48.1875 
Q 61.625 48.1875 57.5625 43.546875 
Q 53.515625 38.921875 53.515625 30.90625 
L 53.515625 0 
L 44.484375 0 
L 44.484375 32.71875 
Q 44.484375 40.625 41.703125 44.40625 
Q 38.921875 48.1875 33.109375 48.1875 
Q 26.21875 48.1875 22.15625 43.53125 
Q 18.109375 38.875 18.109375 30.90625 
L 18.109375 0 
L 9.078125 0 
L 9.078125 54.6875 
L 18.109375 54.6875 
L 18.109375 46.1875 
Q 21.1875 51.21875 25.484375 53.609375 
Q 29.78125 56 35.6875 56 
Q 41.65625 56 45.828125 52.96875 
Q 50 49.953125 52 44.1875 
z
" id="DejaVuSans-109"/>
      <path d="M 10.59375 35.5 
L 73.1875 35.5 
L 73.1875 27.203125 
L 10.59375 27.203125 
z
" id="DejaVuSans-8722"/>
      <path d="M 8.015625 75.875 
L 15.828125 75.875 
Q 23.140625 64.359375 26.78125 53.3125 
Q 30.421875 42.28125 30.421875 31.390625 
Q 30.421875 20.453125 26.78125 9.375 
Q 23.140625 -1.703125 15.828125 -13.1875 
L 8.015625 -13.1875 
Q 14.5 -2 17.703125 9.0625 
Q 20.90625 20.125 20.90625 31.390625 
Q 20.90625 42.671875 17.703125 53.65625 
Q 14.5 64.65625 8.015625 75.875 
z
" id="DejaVuSans-41"/>
     </defs>
     <g transform="translate(428.902941 526.465496)scale(0.1 -0.1)">
      <use transform="translate(0 0.684375)" xlink:href="#DejaVuSans-Oblique-969"/>
      <use transform="translate(83.740234 -15.721875)scale(0.7)" xlink:href="#DejaVuSans-Oblique-73"/>
      <use transform="translate(107.119141 0.684375)" xlink:href="#DejaVuSans-32"/>
      <use transform="translate(138.90625 0.684375)" xlink:href="#DejaVuSans-40"/>
      <use transform="translate(177.919922 0.684375)" xlink:href="#DejaVuSans-99"/>
      <use transform="translate(232.900391 0.684375)" xlink:href="#DejaVuSans-109"/>
      <use transform="translate(331.269531 38.965625)scale(0.7)" xlink:href="#DejaVuSans-8722"/>
      <use transform="translate(389.921875 38.965625)scale(0.7)" xlink:href="#DejaVuSans-49"/>
      <use transform="translate(437.192383 0.684375)" xlink:href="#DejaVuSans-41"/>
     </g>
    </g>
   </g>
   <g id="matplotlib.axis_18">
    <g id="ytick_40">
     <g id="line2d_84">
      <g>
       <use style="stroke:#000000;stroke-width:0.8;" x="387.105882" xlink:href="#m0fae194259" y="497.167059"/>
      </g>
     </g>
     <g id="text_53">
      <!-- 0 -->
      <g transform="translate(373.743382 500.966278)scale(0.1 -0.1)">
       <use xlink:href="#DejaVuSans-48"/>
      </g>
     </g>
    </g>
    <g id="ytick_41">
     <g id="line2d_85">
      <g>
       <use style="stroke:#000000;stroke-width:0.8;" x="387.105882" xlink:href="#m0fae194259" y="473.165484"/>
      </g>
     </g>
     <g id="text_54">
      <!-- 250 -->
      <g transform="translate(361.018382 476.964703)scale(0.1 -0.1)">
       <use xlink:href="#DejaVuSans-50"/>
       <use x="63.623047" xlink:href="#DejaVuSans-53"/>
       <use x="127.246094" xlink:href="#DejaVuSans-48"/>
      </g>
     </g>
    </g>
    <g id="ytick_42">
     <g id="line2d_86">
      <g>
       <use style="stroke:#000000;stroke-width:0.8;" x="387.105882" xlink:href="#m0fae194259" y="449.16391"/>
      </g>
     </g>
     <g id="text_55">
      <!-- 500 -->
      <g transform="translate(361.018382 452.963129)scale(0.1 -0.1)">
       <use xlink:href="#DejaVuSans-53"/>
       <use x="63.623047" xlink:href="#DejaVuSans-48"/>
       <use x="127.246094" xlink:href="#DejaVuSans-48"/>
      </g>
     </g>
    </g>
    <g id="ytick_43">
     <g id="line2d_87">
      <g>
       <use style="stroke:#000000;stroke-width:0.8;" x="387.105882" xlink:href="#m0fae194259" y="425.162336"/>
      </g>
     </g>
     <g id="text_56">
      <!-- 750 -->
      <g transform="translate(361.018382 428.961554)scale(0.1 -0.1)">
       <use xlink:href="#DejaVuSans-55"/>
       <use x="63.623047" xlink:href="#DejaVuSans-53"/>
       <use x="127.246094" xlink:href="#DejaVuSans-48"/>
      </g>
     </g>
    </g>
    <g id="ytick_44">
     <g id="line2d_88">
      <g>
       <use style="stroke:#000000;stroke-width:0.8;" x="387.105882" xlink:href="#m0fae194259" y="401.160761"/>
      </g>
     </g>
     <g id="text_57">
      <!-- 1000 -->
      <g transform="translate(354.655882 404.95998)scale(0.1 -0.1)">
       <use xlink:href="#DejaVuSans-49"/>
       <use x="63.623047" xlink:href="#DejaVuSans-48"/>
       <use x="127.246094" xlink:href="#DejaVuSans-48"/>
       <use x="190.869141" xlink:href="#DejaVuSans-48"/>
      </g>
     </g>
    </g>
    <g id="ytick_45">
     <g id="line2d_89">
      <g>
       <use style="stroke:#000000;stroke-width:0.8;" x="387.105882" xlink:href="#m0fae194259" y="377.159187"/>
      </g>
     </g>
     <g id="text_58">
      <!-- 1250 -->
      <g transform="translate(354.655882 380.958406)scale(0.1 -0.1)">
       <use xlink:href="#DejaVuSans-49"/>
       <use x="63.623047" xlink:href="#DejaVuSans-50"/>
       <use x="127.246094" xlink:href="#DejaVuSans-53"/>
       <use x="190.869141" xlink:href="#DejaVuSans-48"/>
      </g>
     </g>
    </g>
   </g>
   <g id="line2d_90">
    <path clip-path="url(#p96d706028f)" d="M 518.431511 496.423394 
L 516.665342 496.566027 
L 515.317477 496.529242 
L 512.435833 496.318877 
L 509.507712 496.624562 
L 506.161288 496.528525 
L 504.581032 496.49658 
L 502.954297 496.197272 
L 499.42196 495.30656 
L 498.585354 494.707325 
L 497.051576 493.532462 
L 496.633273 493.530927 
L 496.168492 493.775327 
L 494.262889 495.090693 
L 493.75163 495.057726 
L 493.147415 494.773712 
L 492.078418 493.93026 
L 491.427724 493.558727 
L 490.962943 493.539064 
L 490.54464 493.746861 
L 489.893946 494.373631 
L 488.82495 495.388574 
L 488.127778 495.729843 
L 487.33765 495.852256 
L 484.177138 496.067486 
L 483.247576 496.121833 
L 482.457448 495.9347 
L 481.574363 495.471925 
L 478.739198 493.490557 
L 478.227939 492.772797 
L 477.71668 491.613683 
L 477.158942 489.70159 
L 476.508248 486.563216 
L 475.439252 481.237619 
L 475.113905 480.570763 
L 474.927992 480.523778 
L 474.74208 480.714618 
L 474.463211 481.386389 
L 473.951952 483.395021 
L 472.836477 487.926528 
L 472.325218 489.107753 
L 471.953393 489.48923 
L 471.674524 489.507752 
L 471.395656 489.306617 
L 471.023831 488.735747 
L 470.419615 487.301827 
L 469.536531 485.252497 
L 469.211184 484.954574 
L 468.978793 484.982345 
L 468.699925 485.27448 
L 468.281622 486.122369 
L 466.143628 491.131982 
L 465.167588 492.491178 
L 464.005635 493.73525 
L 462.704248 494.794451 
L 461.681729 495.385605 
L 460.938079 495.565654 
L 460.333864 495.481152 
L 459.776126 495.181192 
L 459.032476 494.491406 
L 457.917001 493.466837 
L 457.126873 492.779053 
L 456.70857 492.037986 
L 456.290267 490.747447 
L 455.871964 488.646066 
L 455.407183 485.004342 
L 454.895924 479.045634 
L 453.26919 457.667399 
L 452.990321 456.933306 
L 452.850887 456.987579 
L 452.664974 457.423389 
L 452.339627 458.931641 
L 451.595977 463.920593 
L 450.619937 469.921743 
L 449.922765 472.909356 
L 449.272072 474.771634 
L 448.621378 475.978328 
L 445.6003 480.28187 
L 444.066522 481.972643 
L 443.462307 483.116433 
L 442.532744 485.459712 
L 441.510226 487.880188 
L 440.952488 488.636446 
L 440.441229 488.962652 
L 439.837014 489.063963 
L 439.000408 488.95459 
L 438.21028 488.647683 
L 437.46663 488.100505 
L 434.677943 485.418145 
L 434.073727 484.45723 
L 433.51599 483.141672 
L 432.958252 481.211928 
L 431.377996 475.136484 
L 430.773781 474.191894 
L 430.309 473.34147 
L 429.844218 471.958307 
L 429.240003 469.313141 
L 428.031572 463.720866 
L 427.706225 463.126711 
L 427.520312 463.125288 
L 427.3344 463.409626 
L 427.102009 464.208089 
L 426.776663 466.212045 
L 426.311881 470.746486 
L 424.824582 486.713024 
L 424.313322 489.581433 
L 423.802063 491.252327 
L 423.290804 492.171818 
L 422.779544 492.652117 
L 422.314763 492.812731 
L 421.849982 492.726732 
L 421.338723 492.366118 
L 420.734507 491.634343 
L 420.037336 490.430948 
L 419.340164 488.768316 
L 418.642992 486.456363 
L 417.899342 483.141943 
L 416.690911 476.457423 
L 415.900783 472.693207 
L 415.296568 470.87132 
L 414.73883 469.11714 
L 414.367005 467.042001 
L 413.948702 463.157129 
L 413.483921 456.328877 
L 412.972662 445.128054 
L 412.368446 426.370551 
L 410.974103 379.773615 
L 410.741712 377.840841 
L 410.695234 377.80877 
L 410.648756 377.895276 
L 410.509321 378.850848 
L 410.276931 382.580029 
L 409.858628 394.271132 
L 408.185416 446.408607 
L 407.488244 459.563563 
L 406.791072 468.657121 
L 406.0939 475.024413 
L 405.35025 479.8415 
L 404.560122 483.494804 
L 403.769994 486.1502 
L 402.933388 488.2322 
L 402.003826 489.948548 
L 401.027785 491.289733 
L 399.958789 492.388828 
L 398.750358 493.313434 
L 397.356014 494.097321 
L 395.682802 494.773755 
L 393.637765 495.350215 
L 391.03499 495.840782 
L 387.595609 496.249444 
L 387.08435 496.29503 
L 387.08435 496.29503 
" style="fill:none;stroke:#1f77b4;stroke-linecap:square;stroke-width:1.5;"/>
   </g>
   <g id="patch_43">
    <path d="M 387.105882 497.167059 
L 387.105882 365.872941 
" style="fill:none;stroke:#000000;stroke-linecap:square;stroke-linejoin:miter;stroke-width:0.8;"/>
   </g>
   <g id="patch_44">
    <path d="M 518.4 497.167059 
L 518.4 365.872941 
" style="fill:none;stroke:#000000;stroke-linecap:square;stroke-linejoin:miter;stroke-width:0.8;"/>
   </g>
   <g id="patch_45">
    <path d="M 387.105882 497.167059 
L 518.4 497.167059 
" style="fill:none;stroke:#000000;stroke-linecap:square;stroke-linejoin:miter;stroke-width:0.8;"/>
   </g>
   <g id="patch_46">
    <path d="M 387.105882 365.872941 
L 518.4 365.872941 
" style="fill:none;stroke:#000000;stroke-linecap:square;stroke-linejoin:miter;stroke-width:0.8;"/>
   </g>
  </g>
 </g>
 <defs>
  <clipPath id="pebecda7a10">
   <rect height="131.294118" width="131.294118" x="72" y="75.952941"/>
  </clipPath>
  <clipPath id="p94f3a4d798">
   <rect height="131.294118" width="131.294118" x="229.552941" y="75.952941"/>
  </clipPath>
  <clipPath id="p06ae80b05c">
   <rect height="131.294118" width="131.294118" x="387.105882" y="75.952941"/>
  </clipPath>
  <clipPath id="p0ee18e0c20">
   <rect height="131.294118" width="131.294118" x="72" y="220.912941"/>
  </clipPath>
  <clipPath id="p661033b444">
   <rect height="131.294118" width="131.294118" x="229.552941" y="220.912941"/>
  </clipPath>
  <clipPath id="p6e31bd3e27">
   <rect height="131.294118" width="131.294118" x="387.105882" y="220.912941"/>
  </clipPath>
  <clipPath id="p1c06c20b42">
   <rect height="131.294118" width="131.294118" x="72" y="365.872941"/>
  </clipPath>
  <clipPath id="pddff1d8789">
   <rect height="131.294118" width="131.294118" x="229.552941" y="365.872941"/>
  </clipPath>
  <clipPath id="p96d706028f">
   <rect height="131.294118" width="131.294118" x="387.105882" y="365.872941"/>
  </clipPath>
 </defs>
</svg>
